<?xml version="1.0" encoding="UTF-8" standalone="no"?><svg xmlns="http://www.w3.org/2000/svg" height="768" stroke-width="10.0" viewBox="0 0 10240 7680" width="1024"><g id="main-container" stroke="none"><g fill-opacity="1" font-family="averta,arial,'arial bold'" font-weight="bold" id="background-container" stroke="none"><g fill="rgb(255,255,255)" fill-opacity="0" stroke="rgb(255,255,255)" stroke-opacity="0"><rect height="7680" stroke="none" width="10240" x="0" y="0"/></g><svg height="7680" viewBox="0 0 10240 7680" width="10240" x="0px" y="0px"><defs><filter filterUnits="objectBoundingBox" id="ISM_Shadow"><feGaussianBlur in="SourceAlpha" result="blur" stdDeviation="5"/><feOffset dx="0" dy="0" in="blur" result="offsetBlurredAlpha"/><feColorMatrix in="offsetBlurredAlpha" result="colorMatrix" values="1 0 0 0 0  0 1 0 0 0  0 0 1 0 0  0 0 0 0.5 0"/><feMerge><feMergeNode in="colorMatrix"/><feMergeNode in="SourceGraphic"/></feMerge></filter></defs><path d="M3840.29,7490.18L6414.05,7490.18L8698.53,6131.52L8698.53,2415.38L8322.53,1269.97L6440.94,183.632L3803.71,183.632L1919.43,1271.52L1542.37,2415.25L1542.37,6125.31L3840.29,7490.18Z" fill="#f6f6f6" fill-opacity="1.0" id="POCHE" stroke="#d4d4d4" stroke-opacity="1.0" stroke-width="3.0"/><path d="M7192.51,3189.76L7192.51,5261.74L6874.14,5261.74L6874.14,3189.76L7192.51,3189.76Z" fill="#dfdfdf" fill-opacity="1.0" id="INACTIVE" stroke="#dfdfdf" stroke-opacity="1.0" stroke-width="3.0"/><path d="M3047.49,3194.37L3047.49,5261.74L3365.86,5261.74L3365.86,3194.37L3047.49,3194.37Z" fill="#dfdfdf" fill-opacity="1.0" id="INACTIVE" stroke="#dfdfdf" stroke-opacity="1.0" stroke-width="3.0"/><path d="M7073.84,1796.87L6220.95,1304.45L6075.9,1555.68L6928.79,2048.1L7073.84,1796.87Z" fill="#dfdfdf" fill-opacity="1.0" id="INACTIVE" stroke="#dfdfdf" stroke-opacity="1.0" stroke-width="3.0"/><path d="M3163.78,1798.25C3455.3,1629.93,3714.06,1480.54,3972.82,1331.15L3972.82,1331.15L4094.02,1541.07C3835.26,1690.47,3576.5,1839.86,3284.98,2008.17L3284.98,2008.17C3284.98,2008.17,3163.78,1798.25,3163.78,1798.25Z" fill="#dfdfdf" fill-opacity="1.0" id="INACTIVE" stroke="#dfdfdf" stroke-opacity="1.0" stroke-width="3.0"/><path d="M7192.44,5261.8L6874.21,5261.8L6874.21,6115.07L6921.69,6115.07L7192.44,5990.75L7192.44,5261.8Z" fill="#ffffff" fill-opacity="1.0" id="124WCR" stroke="#dddddd" stroke-opacity="1.0" stroke-width="3.0"/><path d="M3365.79,2364.73L3318.31,2364.73L3047.56,2412.13L3047.56,3194.31L3365.79,3194.31L3365.79,2364.73Z" fill="#ffffff" fill-opacity="1.0" id="107WCR" stroke="#dddddd" stroke-opacity="1.0" stroke-width="3.0"/><path d="M7192.44,2407.53L6921.69,2360.13L6874.21,2360.13L6874.21,3189.7L7192.44,3189.7L7192.44,2407.53Z" fill="#ffffff" fill-opacity="1.0" id="119WCR" stroke="#dddddd" stroke-opacity="1.0" stroke-width="3.0"/><path d="M4094.06,1541.13L3285.07,2008.2L3308.81,2049.31L4117.79,1582.24L4094.06,1541.13Z" fill="#ffffff" fill-opacity="1.0" id="110WCR" stroke="#dddddd" stroke-opacity="1.0" stroke-width="3.0"/><path d="M6099.7,1514.55L6952.49,2006.91L6928.75,2048.02L6075.96,1555.66L6099.7,1514.55Z" fill="#ffffff" fill-opacity="1.0" id="116WCR" stroke="#dddddd" stroke-opacity="1.0" stroke-width="3.0"/><path d="M3365.79,5261.8L3047.56,5261.8L3047.56,5990.76L3318.31,6115.07L3365.79,6115.07L3365.79,5261.8Z" fill="#ffffff" fill-opacity="1.0" id="102WCR" stroke="#dddddd" stroke-opacity="1.0" stroke-width="3.0"/><path d="M1741.92,5990.7C1741.92,5916.63,1741.92,5842.56,1741.92,5768.5C2177.11,5768.5,2612.3,5768.5,3047.49,5768.5C3047.49,5842.56,3047.49,5916.63,3047.49,5990.7L3047.49,5990.7C2612.3,5990.7,2177.11,5990.7,1741.92,5990.7Z" fill="#ffffff" fill-opacity="1.0" id="W101" stroke="#dddddd" stroke-opacity="1.0" stroke-width="3.0"/><path d="M1741.92,5768.5C1741.92,5585.37,1741.92,5402.25,1741.92,5219.12C2177.11,5219.12,2612.3,5219.12,3047.49,5219.12C3047.49,5402.24,3047.49,5585.37,3047.49,5768.5L3047.49,5768.5C2612.3,5768.5,2177.11,5768.5,1741.92,5768.5Z" fill="#ffffff" fill-opacity="1.0" id="W102" stroke="#dddddd" stroke-opacity="1.0" stroke-width="3.0"/><path d="M1741.92,5219.12C1741.92,5036.0,1741.92,4852.87,1741.92,4669.75C2177.11,4669.75,2612.3,4669.75,3047.49,4669.75C3047.49,4852.87,3047.49,5035.99,3047.49,5219.12L3047.49,5219.12C2612.3,5219.12,2177.11,5219.12,1741.92,5219.12Z" fill="#ffffff" fill-opacity="1.0" id="W103" stroke="#dddddd" stroke-opacity="1.0" stroke-width="3.0"/><path d="M1741.92,4669.75C1741.92,4486.62,1741.92,4303.49,1741.92,4120.37C2177.11,4120.37,2612.3,4120.37,3047.49,4120.37C3047.49,4303.49,3047.49,4486.62,3047.49,4669.75L3047.49,4669.75C2612.3,4669.75,2177.11,4669.75,1741.92,4669.75Z" fill="#ffffff" fill-opacity="1.0" id="W104" stroke="#dddddd" stroke-opacity="1.0" stroke-width="3.0"/><path d="M1741.92,3570.99C1741.92,3754.12,1741.92,3937.24,1741.92,4120.37C2177.11,4120.37,2612.3,4120.37,3047.49,4120.37C3047.49,3937.24,3047.49,3754.12,3047.49,3570.99L3047.49,3570.99C2612.3,3570.99,2177.11,3570.99,1741.92,3570.99Z" fill="#ffffff" fill-opacity="1.0" id="W105" stroke="#dddddd" stroke-opacity="1.0" stroke-width="3.0"/><path d="M1741.92,3021.62C1741.92,3204.74,1741.92,3387.87,1741.92,3570.99C2177.11,3570.99,2612.3,3570.99,3047.49,3570.99C3047.49,3387.87,3047.49,3204.74,3047.49,3021.62L3047.49,3021.62C2612.3,3021.62,2177.11,3021.62,1741.92,3021.62Z" fill="#ffffff" fill-opacity="1.0" id="W106" stroke="#dddddd" stroke-opacity="1.0" stroke-width="3.0"/><path d="M1741.92,2447.68C1741.92,2638.99,1741.92,2830.31,1741.92,3021.62C2177.11,3021.62,2612.3,3021.62,3047.49,3021.62C3047.49,2838.49,3047.49,2655.37,3047.49,2472.24C2628.12,2472.24,2208.76,2472.24,1789.4,2472.24C1789.4,2464.06,1789.4,2455.87,1789.4,2447.68L1789.4,2447.68C1773.57,2447.68,1757.75,2447.68,1741.92,2447.68Z" fill="#ffffff" fill-opacity="1.0" id="W107" stroke="#dddddd" stroke-opacity="1.0" stroke-width="3.0"/><path d="M8498.08,2447.68C8498.08,2638.99,8498.08,2830.31,8498.08,3021.62C8062.89,3021.62,7627.7,3021.62,7192.51,3021.62C7192.51,2838.49,7192.51,2655.37,7192.51,2472.24C7611.94,2472.24,8031.36,2472.24,8450.79,2472.24C8450.79,2464.06,8450.79,2455.87,8450.79,2447.68L8450.79,2447.68C8466.55,2447.68,8482.31,2447.68,8498.08,2447.68Z" fill="#ffffff" fill-opacity="1.0" id="E119" stroke="#dddddd" stroke-opacity="1.0" stroke-width="3.0"/><path d="M8498.08,3570.99C8498.08,3387.87,8498.08,3204.74,8498.08,3021.62C8062.89,3021.62,7627.7,3021.62,7192.51,3021.62C7192.51,3204.74,7192.51,3387.87,7192.51,3570.99L7192.51,3570.99C7627.7,3570.99,8062.89,3570.99,8498.08,3570.99Z" fill="#ffffff" fill-opacity="1.0" id="E120" stroke="#dddddd" stroke-opacity="1.0" stroke-width="3.0"/><path d="M8498.08,4120.37C8498.08,3937.24,8498.08,3754.12,8498.08,3570.99C8062.89,3570.99,7627.7,3570.99,7192.51,3570.99C7192.51,3754.12,7192.51,3937.24,7192.51,4120.37L7192.51,4120.37C7627.7,4120.37,8062.89,4120.37,8498.08,4120.37Z" fill="#ffffff" fill-opacity="1.0" id="E121" stroke="#dddddd" stroke-opacity="1.0" stroke-width="3.0"/><path d="M8498.08,4669.75C8498.08,4486.62,8498.08,4303.49,8498.08,4120.37C8062.89,4120.37,7627.7,4120.37,7192.51,4120.37C7192.51,4303.5,7192.51,4486.62,7192.51,4669.75L7192.51,4669.75C7627.7,4669.75,8062.89,4669.75,8498.08,4669.75Z" fill="#ffffff" fill-opacity="1.0" id="E122" stroke="#dddddd" stroke-opacity="1.0" stroke-width="3.0"/><path d="M8498.08,5219.12C8498.08,5035.99,8498.08,4852.87,8498.08,4669.75C8062.89,4669.75,7627.7,4669.75,7192.51,4669.75C7192.51,4852.87,7192.51,5035.99,7192.51,5219.12L7192.51,5219.12C7627.7,5219.12,8062.89,5219.12,8498.08,5219.12Z" fill="#ffffff" fill-opacity="1.0" id="E123" stroke="#dddddd" stroke-opacity="1.0" stroke-width="3.0"/><path d="M8498.08,5768.5C8498.08,5585.37,8498.08,5402.24,8498.08,5219.12C8062.89,5219.12,7627.7,5219.12,7192.51,5219.12C7192.51,5402.25,7192.51,5585.37,7192.51,5768.5L7192.51,5768.5C7627.7,5768.5,8062.89,5768.5,8498.08,5768.5Z" fill="#ffffff" fill-opacity="1.0" id="E124" stroke="#dddddd" stroke-opacity="1.0" stroke-width="3.0"/><path d="M8498.08,5768.5C8498.08,5842.56,8498.08,5916.63,8498.08,5990.7C8062.89,5990.7,7627.7,5990.7,7192.51,5990.7C7192.51,5916.63,7192.51,5842.56,7192.51,5768.5L7192.51,5768.5C7627.7,5768.5,8062.89,5768.5,8498.08,5768.5Z" fill="#ffffff" fill-opacity="1.0" id="E125" stroke="#dddddd" stroke-opacity="1.0" stroke-width="3.0"/><path d="M3411.83,1654.99C3265.44,1401.43,3119.05,1147.88,2972.66,894.322C2777.27,1007.13,2581.88,1119.94,2386.49,1232.75C2532.88,1486.3,2679.27,1739.86,2825.66,1993.42L2825.66,1993.42C3021.05,1880.61,3216.44,1767.8,3411.83,1654.99Z" fill="#ffffff" fill-opacity="1.0" id="N109" stroke="#dddddd" stroke-opacity="1.0" stroke-width="3.0"/><path d="M3558.87,555.874C3705.26,809.429,3851.65,1062.99,3998.05,1316.54C4029.42,1298.43,4060.8,1280.31,4092.18,1262.19C4128.22,1262.19,4164.27,1262.19,4200.31,1262.19C4200.31,969.413,4200.31,676.633,4200.31,383.852C4085.82,383.852,3971.32,383.852,3856.82,383.852L3856.82,383.852C3757.51,441.192,3658.19,498.533,3558.87,555.874Z" fill="#ffffff" fill-opacity="1.0" id="N111" stroke="#dddddd" stroke-opacity="1.0" stroke-width="3.0"/><path d="M3411.83,1654.99C3607.24,1542.17,3802.64,1429.36,3998.05,1316.54C3851.66,1062.99,3705.26,809.43,3558.87,555.874C3363.47,668.69,3168.07,781.506,2972.66,894.323L2972.66,894.323C3119.05,1147.88,3265.44,1401.43,3411.83,1654.99Z" fill="#ffffff" fill-opacity="1.0" id="N110" stroke="#dddddd" stroke-opacity="1.0" stroke-width="3.0"/><path d="M2580.98,1887.57C2562.78,1898.07,2544.59,1908.58,2526.39,1919.09C2514.52,1898.53,2502.65,1877.97,2490.79,1857.41C2472.6,1867.91,2454.41,1878.42,2436.22,1888.92C2424.35,1868.36,2412.48,1847.8,2400.61,1827.25C2382.38,1837.77,2364.15,1848.3,2345.92,1858.82C2258.94,1708.16,2171.96,1557.51,2084.98,1406.85C2185.49,1348.82,2285.99,1290.79,2386.5,1232.77C2521.01,1465.74,2655.52,1698.71,2790.02,1931.69C2762.31,1947.69,2734.6,1963.69,2706.89,1979.68C2694.97,1959.04,2683.05,1938.39,2671.13,1917.75C2652.95,1928.25,2634.77,1938.74,2616.59,1949.24L2616.59,1949.24C2604.72,1928.68,2592.85,1908.13,2580.98,1887.57Z" fill="#ffffff" fill-opacity="1.0" id="N108" stroke="#dddddd" stroke-opacity="1.0" stroke-width="3.0"/><path d="M7658.94,1887.57C7677.13,1898.07,7695.33,1908.58,7713.52,1919.09C7725.39,1898.53,7737.26,1877.97,7749.13,1857.41C7767.32,1867.92,7785.51,1878.42,7803.7,1888.92C7815.57,1868.36,7827.43,1847.8,7839.3,1827.25C7857.53,1837.77,7875.76,1848.3,7893.99,1858.82C7981.29,1707.62,8068.59,1556.42,8155.88,1405.21C8055.4,1347.2,7954.91,1289.18,7854.42,1231.16C7719.6,1464.68,7584.78,1698.2,7449.96,1931.72C7477.65,1947.71,7505.34,1963.7,7533.02,1979.68C7544.94,1959.04,7556.86,1938.39,7568.78,1917.75C7586.97,1928.25,7605.15,1938.74,7623.33,1949.24L7623.33,1949.24C7635.2,1928.68,7647.07,1908.13,7658.94,1887.57Z" fill="#ffffff" fill-opacity="1.0" id="N119" stroke="#dddddd" stroke-opacity="1.0" stroke-width="3.0"/><path d="M6682.01,554.273C6583.64,497.474,6485.26,440.676,6386.88,383.877C6271.15,383.877,6155.42,383.877,6039.69,383.877C6039.69,676.632,6039.69,969.387,6039.69,1262.14C6075.72,1262.14,6111.75,1262.14,6147.79,1262.14C6179.17,1280.26,6210.56,1298.38,6241.94,1316.5L6241.94,1316.5C6388.63,1062.43,6535.32,808.349,6682.01,554.273Z" fill="#ffffff" fill-opacity="1.0" id="N115" stroke="#dddddd" stroke-opacity="1.0" stroke-width="3.0"/><path d="M7268.21,892.71C7072.82,779.903,6877.43,667.096,6682.04,554.288C6535.35,808.365,6388.66,1062.44,6241.97,1316.52C6437.36,1429.33,6632.74,1542.13,6828.13,1654.94L6828.13,1654.94C6974.82,1400.86,7121.51,1146.79,7268.21,892.71Z" fill="#ffffff" fill-opacity="1.0" id="N116" stroke="#dddddd" stroke-opacity="1.0" stroke-width="3.0"/><path d="M7449.93,1931.71C7584.75,1698.19,7719.57,1464.67,7854.4,1231.15C7659.01,1118.34,7463.62,1005.53,7268.23,892.726C7121.54,1146.8,6974.85,1400.88,6828.16,1654.96C7023.55,1767.76,7218.94,1880.57,7414.32,1993.38L7414.32,1993.38C7426.19,1972.82,7438.06,1952.26,7449.93,1931.71Z" fill="#ffffff" fill-opacity="1.0" id="N117" stroke="#dddddd" stroke-opacity="1.0" stroke-width="3.0"/><path d="M7658.94,1887.57C7677.13,1898.07,7695.33,1908.58,7713.52,1919.09C7725.39,1898.53,7737.26,1877.97,7749.13,1857.41C7767.32,1867.92,7785.51,1878.42,7803.7,1888.92C7815.57,1868.36,7827.43,1847.8,7839.3,1827.25C7857.53,1837.77,7875.76,1848.3,7893.99,1858.82C7981.29,1707.62,8068.59,1556.42,8155.88,1405.21C8055.4,1347.2,7954.91,1289.18,7854.42,1231.16C7719.6,1464.68,7584.78,1698.2,7449.96,1931.72C7477.65,1947.71,7505.34,1963.69,7533.02,1979.68C7544.94,1959.04,7556.86,1938.39,7568.78,1917.75C7586.97,1928.25,7605.15,1938.74,7623.33,1949.24L7623.33,1949.24C7635.2,1928.68,7647.07,1908.13,7658.94,1887.57Z" fill="#ffffff" fill-opacity="1.0" id="N118" stroke="#dddddd" stroke-opacity="1.0" stroke-width="3.0"/><path d="M6039.69,383.877C5835.31,383.877,5630.94,383.877,5426.56,383.877C5426.56,605.413,5426.56,826.949,5426.56,1048.49C5630.94,1048.49,5835.31,1048.49,6039.69,1048.49L6039.69,1048.49C6039.69,826.949,6039.69,605.413,6039.69,383.877Z" fill="#ffffff" fill-opacity="1.0" id="N114" stroke="#dddddd" stroke-opacity="1.0" stroke-width="3.0"/><path d="M4200.31,383.877C4404.69,383.877,4609.06,383.877,4813.44,383.877C4813.44,605.413,4813.44,826.949,4813.44,1048.49C4609.06,1048.49,4404.69,1048.49,4200.31,1048.49L4200.31,1048.49C4200.31,826.949,4200.31,605.413,4200.31,383.877Z" fill="#ffffff" fill-opacity="1.0" id="N112" stroke="#dddddd" stroke-opacity="1.0" stroke-width="3.0"/><path d="M5426.56,383.877C5222.19,383.877,5017.81,383.877,4813.44,383.877C4813.44,605.413,4813.44,826.949,4813.44,1048.49C5017.81,1048.49,5222.19,1048.49,5426.56,1048.49L5426.56,1048.49C5426.56,826.949,5426.56,605.413,5426.56,383.877Z" fill="#ffffff" fill-opacity="1.0" id="N113" stroke="#dddddd" stroke-opacity="1.0" stroke-width="3.0"/><path d="M8496.18,2991.04L8496.22,5799.25L8450.67,5799.25L8450.67,2991.04L8496.18,2991.04Z" fill="#ffffff" fill-opacity="1.0" id="MASK"/><path d="M1743.82,2991.04L1743.82,5799.25L1789.33,5799.25L1789.33,2991.04L1743.82,2991.04Z" fill="#ffffff" fill-opacity="1.0" id="MASK"/><path d="M7880.05,1248.18L6386.4,385.818L3857.35,385.819L2360.84,1249.83L2383.71,1289.45L3869.61,431.569L6374.14,431.568L7857.17,1287.8L7880.05,1248.18Z" fill="#ffffff" fill-opacity="1.0" id="MASK"/><g id="VOM"><path d="M3892.72,966.161C3912.5,1000.42,3932.28,1034.68,3952.07,1068.95C3952.07,1068.95,3900.65,1098.63,3900.65,1098.63C3880.87,1064.36,3861.09,1030.1,3841.31,995.841L3841.31,995.841C3841.31,995.841,3892.72,966.161,3892.72,966.161Z" fill="#dfdfdf" fill-opacity="1.0" id="VOM"/><path d="M6398.69,995.839C6378.91,1030.1,6359.12,1064.36,6339.34,1098.63C6339.34,1098.63,6287.93,1068.94,6287.93,1068.94C6307.71,1034.68,6327.5,1000.42,6347.28,966.156L6347.28,966.156C6347.28,966.156,6398.69,995.839,6398.69,995.839Z" fill="#dfdfdf" fill-opacity="1.0" id="VOM"/><path d="M3306.53,1304.6C3326.31,1338.86,3346.09,1373.12,3365.87,1407.39C3365.87,1407.39,3314.46,1437.06,3314.46,1437.06C3294.68,1402.8,3274.9,1368.54,3255.12,1334.28L3255.12,1334.28C3255.12,1334.28,3306.53,1304.6,3306.53,1304.6Z" fill="#dfdfdf" fill-opacity="1.0" id="VOM"/><path d="M6984.88,1334.28C6965.1,1368.54,6945.31,1402.8,6925.53,1437.07C6925.53,1437.07,6874.12,1407.38,6874.12,1407.38C6893.9,1373.12,6913.69,1338.86,6933.47,1304.59L6933.47,1304.59C6933.47,1304.59,6984.88,1334.28,6984.88,1334.28Z" fill="#dfdfdf" fill-opacity="1.0" id="VOM"/><path d="M7571.07,1672.71C7551.29,1706.98,7531.51,1741.24,7511.72,1775.5C7511.72,1775.5,7460.31,1745.82,7460.31,1745.82C7480.1,1711.56,7499.88,1677.3,7519.66,1643.03L7519.66,1643.03C7519.66,1643.03,7571.07,1672.71,7571.07,1672.71Z" fill="#dfdfdf" fill-opacity="1.0" id="VOM"/><path d="M2720.34,1643.04C2740.12,1677.3,2759.9,1711.56,2779.68,1745.82C2779.68,1745.82,2728.27,1775.5,2728.27,1775.5C2708.49,1741.24,2688.71,1706.98,2668.93,1672.72L2668.93,1672.72C2668.93,1672.72,2720.34,1643.04,2720.34,1643.04Z" fill="#dfdfdf" fill-opacity="1.0" id="VOM"/><path d="M7904.64,3546.4C7865.08,3546.41,7825.51,3546.41,7785.95,3546.4C7785.95,3546.4,7785.95,3487.04,7785.95,3487.04C7825.52,3487.04,7865.08,3487.04,7904.64,3487.04L7904.64,3487.04C7904.64,3487.04,7904.64,3546.4,7904.64,3546.4Z" fill="#dfdfdf" fill-opacity="1.0" id="VOM"/><path d="M2335.36,3487.05C2374.92,3487.04,2414.49,3487.04,2454.05,3487.05C2454.05,3487.05,2454.05,3546.41,2454.05,3546.41C2414.48,3546.41,2374.92,3546.41,2335.36,3546.41L2335.36,3546.41C2335.36,3546.41,2335.36,3487.05,2335.36,3487.05Z" fill="#dfdfdf" fill-opacity="1.0" id="VOM"/><path d="M7904.64,4095.78C7865.08,4095.78,7825.51,4095.78,7785.95,4095.78C7785.95,4095.78,7785.95,4036.42,7785.95,4036.42C7825.52,4036.42,7865.08,4036.42,7904.64,4036.42L7904.64,4036.42C7904.64,4036.42,7904.64,4095.78,7904.64,4095.78Z" fill="#dfdfdf" fill-opacity="1.0" id="VOM"/><path d="M2335.36,4036.42C2374.92,4036.42,2414.49,4036.42,2454.05,4036.42C2454.05,4036.42,2454.05,4095.78,2454.05,4095.78C2414.48,4095.78,2374.92,4095.78,2335.36,4095.78L2335.36,4095.78C2335.36,4095.78,2335.36,4036.42,2335.36,4036.42Z" fill="#dfdfdf" fill-opacity="1.0" id="VOM"/><path d="M2335.36,5135.17C2374.92,5135.17,2414.49,5135.17,2454.05,5135.17C2454.05,5135.17,2454.05,5194.54,2454.05,5194.54C2414.48,5194.53,2374.92,5194.53,2335.36,5194.54L2335.36,5194.54C2335.36,5194.54,2335.36,5135.17,2335.36,5135.17Z" fill="#dfdfdf" fill-opacity="1.0" id="VOM"/><path d="M7904.64,5194.53C7865.08,5194.53,7825.51,5194.53,7785.95,5194.53C7785.95,5194.53,7785.95,5135.17,7785.95,5135.17C7825.52,5135.17,7865.08,5135.17,7904.64,5135.17L7904.64,5135.17C7904.64,5135.17,7904.64,5194.53,7904.64,5194.53Z" fill="#dfdfdf" fill-opacity="1.0" id="VOM"/><path d="M7904.64,4645.15C7865.08,4645.16,7825.51,4645.16,7785.95,4645.15C7785.95,4645.15,7785.95,4585.79,7785.95,4585.79C7825.52,4585.79,7865.08,4585.79,7904.64,4585.79L7904.64,4585.79C7904.64,4585.79,7904.64,4645.15,7904.64,4645.15Z" fill="#dfdfdf" fill-opacity="1.0" id="VOM"/><path d="M2335.36,4585.8C2374.92,4585.79,2414.49,4585.79,2454.05,4585.8C2454.05,4585.8,2454.05,4645.16,2454.05,4645.16C2414.48,4645.16,2374.92,4645.16,2335.36,4645.16L2335.36,4645.16C2335.36,4645.16,2335.36,4585.8,2335.36,4585.8Z" fill="#dfdfdf" fill-opacity="1.0" id="VOM"/><path d="M7904.64,2997.03C7865.08,2997.03,7825.51,2997.03,7785.95,2997.03C7785.95,2997.03,7785.95,2937.67,7785.95,2937.67C7825.52,2937.67,7865.08,2937.67,7904.64,2937.67L7904.64,2937.67C7904.64,2937.67,7904.64,2997.03,7904.64,2997.03Z" fill="#dfdfdf" fill-opacity="1.0" id="VOM"/><path d="M2335.36,2937.67C2374.92,2937.67,2414.49,2937.67,2454.05,2937.67C2454.05,2937.67,2454.05,2997.03,2454.05,2997.03C2414.48,2997.03,2374.92,2997.03,2335.36,2997.03L2335.36,2997.03C2335.36,2997.03,2335.36,2937.67,2335.36,2937.67Z" fill="#dfdfdf" fill-opacity="1.0" id="VOM"/><path d="M7665.06,1726.98C7645.29,1761.25,7625.5,1795.51,7605.72,1829.77C7605.72,1829.77,7554.31,1800.09,7554.31,1800.09C7574.09,1765.83,7593.88,1731.56,7613.66,1697.3L7613.66,1697.3C7613.66,1697.3,7665.06,1726.98,7665.06,1726.98Z" fill="#dfdfdf" fill-opacity="1.0" id="VOM"/><path d="M3212.53,1358.87C3232.32,1393.13,3252.1,1427.39,3271.88,1461.66C3271.88,1461.66,3220.46,1491.33,3220.46,1491.33C3200.68,1457.07,3180.9,1422.81,3161.12,1388.55L3161.12,1388.55C3161.12,1388.55,3212.53,1358.87,3212.53,1358.87Z" fill="#dfdfdf" fill-opacity="1.0" id="VOM"/><path d="M7078.87,1388.55C7059.1,1422.81,7039.31,1457.07,7019.53,1491.33C7019.53,1491.33,6968.12,1461.65,6968.12,1461.65C6987.9,1427.39,7007.68,1393.13,7027.46,1358.86L7027.46,1358.86C7027.46,1358.86,7078.87,1388.55,7078.87,1388.55Z" fill="#dfdfdf" fill-opacity="1.0" id="VOM"/><path d="M5401.94,906.076C5401.95,945.639,5401.95,985.202,5401.95,1024.77C5401.95,1024.77,5342.58,1024.76,5342.58,1024.76C5342.58,985.2,5342.58,945.638,5342.58,906.075L5342.58,906.075C5342.58,906.075,5401.94,906.076,5401.94,906.076Z" fill="#dfdfdf" fill-opacity="1.0" id="VOM"/><path d="M4897.41,906.076C4897.42,945.638,4897.41,985.201,4897.41,1024.77C4897.41,1024.77,4838.05,1024.76,4838.05,1024.76C4838.05,985.2,4838.05,945.637,4838.05,906.075L4838.05,906.075C4838.05,906.075,4897.41,906.076,4897.41,906.076Z" fill="#dfdfdf" fill-opacity="1.0" id="VOM"/><path d="M5510.54,906.076C5510.54,945.638,5510.54,985.201,5510.54,1024.77C5510.54,1024.77,5451.17,1024.76,5451.17,1024.76C5451.18,985.2,5451.18,945.637,5451.17,906.075L5451.17,906.075C5451.17,906.075,5510.54,906.076,5510.54,906.076Z" fill="#dfdfdf" fill-opacity="1.0" id="VOM"/><path d="M4788.82,906.076C4788.82,945.638,4788.82,985.201,4788.82,1024.77C4788.82,1024.77,4729.46,1024.76,4729.46,1024.76C4729.46,985.2,4729.46,945.637,4729.46,906.075L4729.46,906.075C4729.46,906.075,4788.82,906.076,4788.82,906.076Z" fill="#dfdfdf" fill-opacity="1.0" id="VOM"/><path d="M4175.69,906.076C4175.7,945.638,4175.7,985.201,4175.69,1024.77C4175.69,1024.77,4116.33,1024.76,4116.33,1024.76C4116.33,985.2,4116.33,945.637,4116.33,906.075L4116.33,906.075C4116.33,906.075,4175.69,906.076,4175.69,906.076Z" fill="#dfdfdf" fill-opacity="1.0" id="VOM"/><path d="M6123.66,906.076C6123.67,945.638,6123.67,985.201,6123.66,1024.77C6123.66,1024.77,6064.3,1024.76,6064.3,1024.76C6064.3,985.199,6064.3,945.637,6064.3,906.075L6064.3,906.075C6064.3,906.075,6123.66,906.076,6123.66,906.076Z" fill="#dfdfdf" fill-opacity="1.0" id="VOM"/><path d="M3798.72,1020.43C3818.51,1054.69,3838.29,1088.95,3858.07,1123.22C3858.07,1123.22,3806.66,1152.9,3806.66,1152.9C3786.88,1118.63,3767.09,1084.37,3747.31,1050.11L3747.31,1050.11C3747.31,1050.11,3798.72,1020.43,3798.72,1020.43Z" fill="#dfdfdf" fill-opacity="1.0" id="VOM"/><path d="M6492.68,1050.11C6472.9,1084.37,6453.12,1118.63,6433.34,1152.9C6433.34,1152.9,6381.93,1123.21,6381.93,1123.21C6401.71,1088.95,6421.49,1054.69,6441.27,1020.43L6441.27,1020.43C6441.27,1020.43,6492.68,1050.11,6492.68,1050.11Z" fill="#dfdfdf" fill-opacity="1.0" id="VOM"/><path d="M2626.34,1697.31C2646.12,1731.57,2665.9,1765.83,2685.69,1800.09C2685.69,1800.09,2634.27,1829.77,2634.27,1829.77C2614.49,1795.51,2594.71,1761.25,2574.93,1726.99L2574.93,1726.99C2574.93,1726.99,2626.34,1697.31,2626.34,1697.31Z" fill="#dfdfdf" fill-opacity="1.0" id="VOM"/><path d="M7904.64,5303.07C7865.08,5303.07,7825.51,5303.07,7785.95,5303.07C7785.95,5303.07,7785.95,5243.7,7785.95,5243.7C7825.52,5243.71,7865.08,5243.71,7904.64,5243.71L7904.64,5243.71C7904.64,5243.71,7904.64,5303.07,7904.64,5303.07Z" fill="#dfdfdf" fill-opacity="1.0" id="VOM"/><path d="M2335.36,5243.71C2374.92,5243.71,2414.49,5243.71,2454.05,5243.71C2454.05,5243.71,2454.05,5303.07,2454.05,5303.07C2414.48,5303.07,2374.92,5303.07,2335.36,5303.07L2335.36,5303.07C2335.36,5303.07,2335.36,5243.71,2335.36,5243.71Z" fill="#dfdfdf" fill-opacity="1.0" id="VOM"/><path d="M2335.36,4694.34C2374.92,4694.33,2414.49,4694.33,2454.05,4694.33C2454.05,4694.33,2454.05,4753.7,2454.05,4753.7C2414.48,4753.7,2374.92,4753.7,2335.36,4753.7L2335.36,4753.7C2335.36,4753.7,2335.36,4694.34,2335.36,4694.34Z" fill="#dfdfdf" fill-opacity="1.0" id="VOM"/><path d="M7904.64,4753.69C7865.08,4753.7,7825.51,4753.69,7785.95,4753.69C7785.95,4753.69,7785.95,4694.33,7785.95,4694.33C7825.52,4694.33,7865.08,4694.33,7904.64,4694.33L7904.64,4694.33C7904.64,4694.33,7904.64,4753.69,7904.64,4753.69Z" fill="#dfdfdf" fill-opacity="1.0" id="VOM"/><path d="M7904.64,4204.32C7865.08,4204.32,7825.51,4204.32,7785.95,4204.32C7785.95,4204.32,7785.95,4144.95,7785.95,4144.95C7825.52,4144.96,7865.08,4144.96,7904.64,4144.95L7904.64,4144.95C7904.64,4144.95,7904.64,4204.32,7904.64,4204.32Z" fill="#dfdfdf" fill-opacity="1.0" id="VOM"/><path d="M2335.36,4144.96C2374.92,4144.96,2414.49,4144.96,2454.05,4144.96C2454.05,4144.96,2454.05,4204.32,2454.05,4204.32C2414.48,4204.32,2374.92,4204.32,2335.36,4204.32L2335.36,4204.32C2335.36,4204.32,2335.36,4144.96,2335.36,4144.96Z" fill="#dfdfdf" fill-opacity="1.0" id="VOM"/><path d="M2335.36,3595.59C2374.92,3595.58,2414.49,3595.58,2454.05,3595.58C2454.05,3595.58,2454.05,3654.95,2454.05,3654.95C2414.48,3654.95,2374.92,3654.95,2335.36,3654.95L2335.36,3654.95C2335.36,3654.95,2335.36,3595.59,2335.36,3595.59Z" fill="#dfdfdf" fill-opacity="1.0" id="VOM"/><path d="M7904.64,3654.94C7865.08,3654.95,7825.52,3654.94,7785.95,3654.94C7785.95,3654.94,7785.95,3595.58,7785.95,3595.58C7825.52,3595.58,7865.08,3595.58,7904.64,3595.58L7904.64,3595.58C7904.64,3595.58,7904.64,3654.94,7904.64,3654.94Z" fill="#dfdfdf" fill-opacity="1.0" id="VOM"/><path d="M7904.64,3105.57C7865.08,3105.57,7825.51,3105.57,7785.95,3105.57C7785.95,3105.57,7785.95,3046.2,7785.95,3046.2C7825.52,3046.21,7865.08,3046.21,7904.64,3046.2L7904.64,3046.2C7904.64,3046.2,7904.64,3105.57,7904.64,3105.57Z" fill="#dfdfdf" fill-opacity="1.0" id="VOM"/><path d="M2335.36,3046.21C2374.92,3046.21,2414.49,3046.21,2454.05,3046.21C2454.05,3046.21,2454.05,3105.57,2454.05,3105.57C2414.48,3105.57,2374.92,3105.57,2335.36,3105.57L2335.36,3105.57C2335.36,3105.57,2335.36,3046.21,2335.36,3046.21Z" fill="#dfdfdf" fill-opacity="1.0" id="VOM"/><path d="M2335.36,5684.55C2374.92,5684.54,2414.49,5684.54,2454.05,5684.55C2454.05,5684.55,2454.05,5743.91,2454.05,5743.91C2414.48,5743.91,2374.92,5743.91,2335.36,5743.91L2335.36,5743.91C2335.36,5743.91,2335.36,5684.55,2335.36,5684.55Z" fill="#dfdfdf" fill-opacity="1.0" id="VOM"/><path d="M7904.64,5743.9C7865.08,5743.91,7825.51,5743.91,7785.95,5743.9C7785.95,5743.9,7785.95,5684.54,7785.95,5684.54C7825.52,5684.54,7865.08,5684.54,7904.64,5684.54L7904.64,5684.54C7904.64,5684.54,7904.64,5743.9,7904.64,5743.9Z" fill="#dfdfdf" fill-opacity="1.0" id="VOM"/><path d="M7904.64,2556.19C7865.08,2556.19,7825.51,2556.19,7785.95,2556.19C7785.95,2556.19,7785.95,2496.83,7785.95,2496.83C7825.52,2496.83,7865.08,2496.83,7904.64,2496.83L7904.64,2496.83C7904.64,2496.83,7904.64,2556.19,7904.64,2556.19Z" fill="#dfdfdf" fill-opacity="1.0" id="VOM"/><path d="M2335.36,2496.84C2374.92,2496.83,2414.49,2496.83,2454.05,2496.83C2454.05,2496.83,2454.05,2556.2,2454.05,2556.2C2414.48,2556.2,2374.92,2556.2,2335.36,2556.2L2335.36,2556.2C2335.36,2556.2,2335.36,2496.84,2335.36,2496.84Z" fill="#dfdfdf" fill-opacity="1.0" id="VOM"/><path d="M2335.36,5793.09C2374.92,5793.08,2414.49,5793.08,2454.05,5793.08C2454.05,5793.08,2454.05,5852.45,2454.05,5852.45C2414.48,5852.45,2374.92,5852.45,2335.36,5852.45L2335.36,5852.45C2335.36,5852.45,2335.36,5793.09,2335.36,5793.09Z" fill="#dfdfdf" fill-opacity="1.0" id="VOM"/><path d="M7904.64,5852.44C7865.08,5852.45,7825.51,5852.44,7785.95,5852.44C7785.95,5852.44,7785.95,5793.08,7785.95,5793.08C7825.52,5793.08,7865.08,5793.08,7904.64,5793.08L7904.64,5793.08C7904.64,5793.08,7904.64,5852.44,7904.64,5852.44Z" fill="#dfdfdf" fill-opacity="1.0" id="VOM"/></g><path d="M3365.86,2017.1L4163.21,1555.7L6075.89,1555.7L6874.14,2017.1L6874.14,6462.36L3365.86,6462.36L3365.86,2017.1Z" fill="#ffffff" fill-opacity="1.0" id="GA1" stroke="#dddddd" stroke-opacity="1.0" stroke-width="0.0"/><path d="M4266.9,6462.42C3547.46,6462.42,4760.29,6462.42,4040.84,6462.42C4040.84,6751.29,4040.84,7002.31,4040.84,7291.19C4760.29,7291.19,3547.46,7291.19,4266.9,7291.19L4266.9,7291.19C4266.9,7002.31,4266.9,6751.29,4266.9,6462.42Z" fill="#ffffff" fill-opacity="1.0" id="S131" stroke="#dddddd" stroke-opacity="1.0" stroke-width="3.0"/><path d="M5127.9,6462.42C4984.4,6462.42,4840.9,6462.42,4697.4,6462.42C4697.4,6741.23,4697.4,7012.38,4697.4,7291.19C4840.9,7291.19,4984.4,7291.19,5127.9,7291.19L5127.9,7291.19C5127.9,7012.38,5127.9,6741.23,5127.9,6462.42Z" fill="#ffffff" fill-opacity="1.0" id="S129" stroke="#dddddd" stroke-opacity="1.0" stroke-width="3.0"/><path d="M5558.39,6462.42C5414.89,6462.42,5271.39,6462.42,5127.9,6462.42C5127.9,6741.23,5127.9,7012.38,5127.9,7291.19C5271.39,7291.19,5414.89,7291.19,5558.39,7291.19L5558.39,7291.19C5558.39,7012.38,5558.39,6741.23,5558.39,6462.42Z" fill="#ffffff" fill-opacity="1.0" id="S128" stroke="#dddddd" stroke-opacity="1.0" stroke-width="3.0"/><path d="M4697.4,6462.42C4553.9,6462.42,4410.4,6462.42,4266.9,6462.42C4266.9,6741.23,4266.9,7012.38,4266.9,7291.19C4410.4,7291.19,4553.9,7291.19,4697.4,7291.19L4697.4,7291.19C4697.4,7012.38,4697.4,6741.23,4697.4,6462.42Z" fill="#ffffff" fill-opacity="1.0" id="S130" stroke="#dddddd" stroke-opacity="1.0" stroke-width="3.0"/><path d="M5988.89,6462.42C5845.39,6462.42,5701.89,6462.42,5558.39,6462.42C5558.39,6741.23,5558.39,7012.38,5558.39,7291.19C5701.89,7291.19,5845.39,7291.19,5988.89,7291.19L5988.89,7291.19C5988.89,7012.38,5988.89,6741.23,5988.89,6462.42Z" fill="#ffffff" fill-opacity="1.0" id="S127" stroke="#dddddd" stroke-opacity="1.0" stroke-width="3.0"/><path d="M6214.95,6462.42C5495.5,6462.42,6708.33,6462.42,5988.89,6462.42C5988.89,6751.29,5988.89,7002.31,5988.89,7291.19C6708.33,7291.19,5495.5,7291.19,6214.95,7291.19L6214.95,7291.19C6214.95,7002.31,6214.95,6751.29,6214.95,6462.42Z" fill="#ffffff" fill-opacity="1.0" id="S126" stroke="#dddddd" stroke-opacity="1.0" stroke-width="3.0"/></svg></g><g id="section-map-outline-container"><g fill="rgb(114,114,114)" stroke="rgb(193,193,193)"><path d="M4697.3999 6462.4199 C4553.8999 6462.4199 4410.3999 6462.4199 4266.8999 6462.4199 C4266.8999 6741.23 4266.8999 7012.3799 4266.8999 7291.1899 C4410.3999 7291.1899 4553.8999 7291.1899 4697.3999 7291.1899 L4697.3999 7291.1899 C4697.3999 7012.3799 4697.3999 6741.23 4697.3999 6462.4199 Z" fill-rule="evenodd" stroke="none"/><path d="M4697.3999 6462.4199 C4553.8999 6462.4199 4410.3999 6462.4199 4266.8999 6462.4199 C4266.8999 6741.23 4266.8999 7012.3799 4266.8999 7291.1899 C4410.3999 7291.1899 4553.8999 7291.1899 4697.3999 7291.1899 L4697.3999 7291.1899 C4697.3999 7012.3799 4697.3999 6741.23 4697.3999 6462.4199 Z" fill="rgb(114,114,114)" fill-rule="evenodd" stroke="white"/><path d="M8498.0801 5768.5 C8498.0801 5842.5601 8498.0801 5916.6299 8498.0801 5990.7002 C8062.8901 5990.7002 7627.7002 5990.7002 7192.5098 5990.7002 C7192.5098 5916.6299 7192.5098 5842.5601 7192.5098 5768.5 L7192.5098 5768.5 C7627.7002 5768.5 8062.8901 5768.5 8498.0801 5768.5 Z" fill-rule="evenodd" stroke="none"/><path d="M8498.0801 5768.5 C8498.0801 5842.5601 8498.0801 5916.6299 8498.0801 5990.7002 C8062.8901 5990.7002 7627.7002 5990.7002 7192.5098 5990.7002 C7192.5098 5916.6299 7192.5098 5842.5601 7192.5098 5768.5 L7192.5098 5768.5 C7627.7002 5768.5 8062.8901 5768.5 8498.0801 5768.5 Z" fill="rgb(114,114,114)" fill-rule="evenodd" stroke="white"/><path d="M3558.8701 555.874 C3705.26 809.429 3851.6599 1062.99 3998.05 1316.54 C4029.4199 1298.4301 4060.8 1280.3101 4092.1799 1262.1899 C4128.2202 1262.1899 4164.27 1262.1899 4200.3101 1262.1899 C4200.3101 969.413 4200.3101 676.633 4200.3101 383.852 C4085.8201 383.852 3971.3201 383.852 3856.8201 383.852 L3856.8201 383.852 C3757.51 441.193 3658.1899 498.533 3558.8701 555.874 Z" fill-rule="evenodd" stroke="none"/><path d="M3558.8701 555.874 C3705.26 809.429 3851.6599 1062.99 3998.05 1316.54 C4029.4199 1298.4301 4060.8 1280.3101 4092.1799 1262.1899 C4128.2202 1262.1899 4164.27 1262.1899 4200.3101 1262.1899 C4200.3101 969.413 4200.3101 676.633 4200.3101 383.852 C4085.8201 383.852 3971.3201 383.852 3856.8201 383.852 L3856.8201 383.852 C3757.51 441.193 3658.1899 498.533 3558.8701 555.874 Z" fill="rgb(114,114,114)" fill-rule="evenodd" stroke="white"/><path d="M4200.3101 383.877 C4404.6899 383.877 4609.0601 383.877 4813.4399 383.877 C4813.4399 605.413 4813.4399 826.949 4813.4399 1048.49 C4609.0601 1048.49 4404.6899 1048.49 4200.3101 1048.49 L4200.3101 1048.49 C4200.3101 826.949 4200.3101 605.413 4200.3101 383.877 Z" fill-rule="evenodd" stroke="none"/><path d="M4200.3101 383.877 C4404.6899 383.877 4609.0601 383.877 4813.4399 383.877 C4813.4399 605.413 4813.4399 826.949 4813.4399 1048.49 C4609.0601 1048.49 4404.6899 1048.49 4200.3101 1048.49 L4200.3101 1048.49 C4200.3101 826.949 4200.3101 605.413 4200.3101 383.877 Z" fill="rgb(114,114,114)" fill-rule="evenodd" stroke="white"/><path d="M6682.0098 554.273 C6583.6401 497.474 6485.2598 440.676 6386.8799 383.877 C6271.1499 383.877 6155.4199 383.877 6039.6899 383.877 C6039.6899 676.632 6039.6899 969.387 6039.6899 1262.14 C6075.7202 1262.14 6111.75 1262.14 6147.79 1262.14 C6179.1699 1280.26 6210.5601 1298.38 6241.9399 1316.5 L6241.9399 1316.5 C6388.6299 1062.4301 6535.3198 808.35 6682.0098 554.273 Z" fill-rule="evenodd" stroke="none"/><path d="M6682.0098 554.273 C6583.6401 497.474 6485.2598 440.676 6386.8799 383.877 C6271.1499 383.877 6155.4199 383.877 6039.6899 383.877 C6039.6899 676.632 6039.6899 969.387 6039.6899 1262.14 C6075.7202 1262.14 6111.75 1262.14 6147.79 1262.14 C6179.1699 1280.26 6210.5601 1298.38 6241.9399 1316.5 L6241.9399 1316.5 C6388.6299 1062.4301 6535.3198 808.35 6682.0098 554.273 Z" fill="rgb(114,114,114)" fill-rule="evenodd" stroke="white"/><path d="M7854.3999 1231.15 C7659.0098 1118.34 7463.6201 1005.53 7268.23 892.727 C7121.54 1146.8 6974.8501 1400.88 6828.1602 1654.96 C7023.5498 1767.76 7218.9399 1880.5699 7414.3198 1993.38 L7414.3198 1993.38 C7426.1899 1972.8199 7719.5698 1464.67 7854.3999 1231.15 Z" fill-rule="evenodd" stroke="none"/><path d="M7854.3999 1231.15 C7659.0098 1118.34 7463.6201 1005.53 7268.23 892.727 C7121.54 1146.8 6974.8501 1400.88 6828.1602 1654.96 C7023.5498 1767.76 7218.9399 1880.5699 7414.3198 1993.38 L7414.3198 1993.38 C7426.1899 1972.8199 7719.5698 1464.67 7854.3999 1231.15 Z" fill="rgb(114,114,114)" fill-rule="evenodd" stroke="white"/><path d="M3365.79 2364.73 L3318.3101 2364.73 L3047.5601 2412.1299 L3047.5601 3194.3101 L3365.79 3194.3101 L3365.79 2364.73 Z" fill-rule="evenodd" stroke="none"/><path d="M3365.79 2364.73 L3318.3101 2364.73 L3047.5601 2412.1299 L3047.5601 3194.3101 L3365.79 3194.3101 L3365.79 2364.73 Z" fill="rgb(114,114,114)" fill-rule="evenodd" stroke="white"/><path d="M7268.21 892.711 C7072.8198 779.903 6877.4302 667.096 6682.04 554.289 C6535.3501 808.365 6388.6602 1062.4399 6241.9702 1316.52 C6437.3599 1429.33 6632.7402 1542.13 6828.1299 1654.9399 L6828.1299 1654.9399 C6974.8198 1400.86 7121.5098 1146.79 7268.21 892.711 Z" fill-rule="evenodd" stroke="none"/><path d="M7268.21 892.711 C7072.8198 779.903 6877.4302 667.096 6682.04 554.289 C6535.3501 808.365 6388.6602 1062.4399 6241.9702 1316.52 C6437.3599 1429.33 6632.7402 1542.13 6828.1299 1654.9399 L6828.1299 1654.9399 C6974.8198 1400.86 7121.5098 1146.79 7268.21 892.711 Z" fill="rgb(114,114,114)" fill-rule="evenodd" stroke="white"/><path d="M6039.6899 383.877 C5835.3101 383.877 5630.9399 383.877 5426.5601 383.877 C5426.5601 605.413 5426.5601 826.949 5426.5601 1048.49 C5630.9399 1048.49 5835.3101 1048.49 6039.6899 1048.49 L6039.6899 1048.49 C6039.6899 826.949 6039.6899 605.413 6039.6899 383.877 Z" fill-rule="evenodd" stroke="none"/><path d="M6039.6899 383.877 C5835.3101 383.877 5630.9399 383.877 5426.5601 383.877 C5426.5601 605.413 5426.5601 826.949 5426.5601 1048.49 C5630.9399 1048.49 5835.3101 1048.49 6039.6899 1048.49 L6039.6899 1048.49 C6039.6899 826.949 6039.6899 605.413 6039.6899 383.877 Z" fill="rgb(114,114,114)" fill-rule="evenodd" stroke="white"/><path d="M3411.8301 1654.99 C3607.24 1542.17 3802.6399 1429.36 3998.05 1316.54 C3851.6599 1062.99 3705.26 809.429 3558.8701 555.874 C3363.47 668.69 3168.0701 781.506 2972.6599 894.322 L2972.6599 894.322 C3119.05 1147.88 3265.4399 1401.4301 3411.8301 1654.99 Z" fill-rule="evenodd" stroke="none"/><path d="M3411.8301 1654.99 C3607.24 1542.17 3802.6399 1429.36 3998.05 1316.54 C3851.6599 1062.99 3705.26 809.429 3558.8701 555.874 C3363.47 668.69 3168.0701 781.506 2972.6599 894.322 L2972.6599 894.322 C3119.05 1147.88 3265.4399 1401.4301 3411.8301 1654.99 Z" fill="rgb(114,114,114)" fill-rule="evenodd" stroke="white"/><path d="M1741.92 5990.7002 C1741.92 5916.6299 1741.92 5842.5601 1741.92 5768.5 C2177.1101 5768.5 2612.3 5768.5 3047.49 5768.5 C3047.49 5842.5601 3047.49 5916.6299 3047.49 5990.7002 L3047.49 5990.7002 C2612.3 5990.7002 2177.1101 5990.7002 1741.92 5990.7002 Z" fill-rule="evenodd" stroke="none"/><path d="M1741.92 5990.7002 C1741.92 5916.6299 1741.92 5842.5601 1741.92 5768.5 C2177.1101 5768.5 2612.3 5768.5 3047.49 5768.5 C3047.49 5842.5601 3047.49 5916.6299 3047.49 5990.7002 L3047.49 5990.7002 C2612.3 5990.7002 2177.1101 5990.7002 1741.92 5990.7002 Z" fill="rgb(114,114,114)" fill-rule="evenodd" stroke="white"/><path d="M7658.9399 1887.5699 C7677.1299 1898.0699 7695.3301 1908.58 7713.52 1919.09 C7725.3901 1898.53 7737.2598 1877.97 7749.1299 1857.41 C7767.3198 1867.92 7785.5098 1878.42 7803.7002 1888.92 C7815.5698 1868.36 7827.4302 1847.8 7839.2998 1827.25 C7857.5298 1837.77 7875.7598 1848.3 7893.9902 1858.8199 C7981.29 1707.62 8068.5898 1556.42 8155.8799 1405.21 C8055.3999 1347.2 7954.9102 1289.1801 7854.4199 1231.16 C7719.6001 1464.6801 7584.7798 1698.2 7449.96 1931.72 C7477.6499 1947.71 7505.3398 1963.6899 7533.02 1979.6801 C7544.9399 1959.04 7556.8599 1938.39 7568.7798 1917.75 C7586.96 1928.25 7605.1499 1938.74 7623.3301 1949.24 L7623.3301 1949.24 C7635.2002 1928.6801 7647.0698 1908.13 7658.9399 1887.5699 Z" fill-rule="evenodd" stroke="none"/><path d="M7658.9399 1887.5699 C7677.1299 1898.0699 7695.3301 1908.58 7713.52 1919.09 C7725.3901 1898.53 7737.2598 1877.97 7749.1299 1857.41 C7767.3198 1867.92 7785.5098 1878.42 7803.7002 1888.92 C7815.5698 1868.36 7827.4302 1847.8 7839.2998 1827.25 C7857.5298 1837.77 7875.7598 1848.3 7893.9902 1858.8199 C7981.29 1707.62 8068.5898 1556.42 8155.8799 1405.21 C8055.3999 1347.2 7954.9102 1289.1801 7854.4199 1231.16 C7719.6001 1464.6801 7584.7798 1698.2 7449.96 1931.72 C7477.6499 1947.71 7505.3398 1963.6899 7533.02 1979.6801 C7544.9399 1959.04 7556.8599 1938.39 7568.7798 1917.75 C7586.96 1928.25 7605.1499 1938.74 7623.3301 1949.24 L7623.3301 1949.24 C7635.2002 1928.6801 7647.0698 1908.13 7658.9399 1887.5699 Z" fill="rgb(114,114,114)" fill-rule="evenodd" stroke="white"/><path d="M5426.5601 383.877 C5222.1899 383.877 5017.8101 383.877 4813.4399 383.877 C4813.4399 605.413 4813.4399 826.949 4813.4399 1048.49 C5017.8101 1048.49 5222.1899 1048.49 5426.5601 1048.49 L5426.5601 1048.49 C5426.5601 826.949 5426.5601 605.413 5426.5601 383.877 Z" fill-rule="evenodd" stroke="none"/><path d="M5426.5601 383.877 C5222.1899 383.877 5017.8101 383.877 4813.4399 383.877 C4813.4399 605.413 4813.4399 826.949 4813.4399 1048.49 C5017.8101 1048.49 5222.1899 1048.49 5426.5601 1048.49 L5426.5601 1048.49 C5426.5601 826.949 5426.5601 605.413 5426.5601 383.877 Z" fill="rgb(114,114,114)" fill-rule="evenodd" stroke="white"/><path d="M3365.79 5261.7998 L3047.5601 5261.7998 L3047.5601 5990.7598 L3318.3101 6115.0698 L3365.79 6115.0698 L3365.79 5261.7998 Z" fill-rule="evenodd" stroke="none"/><path d="M3365.79 5261.7998 L3047.5601 5261.7998 L3047.5601 5990.7598 L3318.3101 6115.0698 L3365.79 6115.0698 L3365.79 5261.7998 Z" fill="rgb(114,114,114)" fill-rule="evenodd" stroke="white"/><path d="M6099.7002 1514.55 L6952.4902 2006.91 L6928.75 2048.02 L6075.96 1555.66 L6099.7002 1514.55 Z" fill-rule="evenodd" stroke="none"/><path d="M6099.7002 1514.55 L6952.4902 2006.91 L6928.75 2048.02 L6075.96 1555.66 L6099.7002 1514.55 Z" fill="rgb(114,114,114)" fill-rule="evenodd" stroke="white"/><path d="M4094.0601 1541.13 L3285.0701 2008.2 L3308.8101 2049.3101 L4117.79 1582.24 L4094.0601 1541.13 Z" fill-rule="evenodd" stroke="none"/><path d="M4094.0601 1541.13 L3285.0701 2008.2 L3308.8101 2049.3101 L4117.79 1582.24 L4094.0601 1541.13 Z" fill="rgb(114,114,114)" fill-rule="evenodd" stroke="white"/><path d="M7192.4399 2407.53 L6921.6899 2360.1299 L6874.21 2360.1299 L6874.21 3189.7 L7192.4399 3189.7 L7192.4399 2407.53 Z" fill-rule="evenodd" stroke="none"/><path d="M7192.4399 2407.53 L6921.6899 2360.1299 L6874.21 2360.1299 L6874.21 3189.7 L7192.4399 3189.7 L7192.4399 2407.53 Z" fill="rgb(114,114,114)" fill-rule="evenodd" stroke="white"/><path d="M7192.4399 5261.7998 L6874.21 5261.7998 L6874.21 6115.0698 L6921.6899 6115.0698 L7192.4399 5990.75 L7192.4399 5261.7998 Z" fill-rule="evenodd" stroke="none"/><path d="M7192.4399 5261.7998 L6874.21 5261.7998 L6874.21 6115.0698 L6921.6899 6115.0698 L7192.4399 5990.75 L7192.4399 5261.7998 Z" fill="rgb(114,114,114)" fill-rule="evenodd" stroke="white"/><path d="M5127.8999 6462.4199 C4984.3999 6462.4199 4840.8999 6462.4199 4697.3999 6462.4199 C4697.3999 6741.23 4697.3999 7012.3799 4697.3999 7291.1899 C4840.8999 7291.1899 4984.3999 7291.1899 5127.8999 7291.1899 L5127.8999 7291.1899 C5127.8999 7012.3799 5127.8999 6741.23 5127.8999 6462.4199 Z" fill-rule="evenodd" stroke="none"/><path d="M5127.8999 6462.4199 C4984.3999 6462.4199 4840.8999 6462.4199 4697.3999 6462.4199 C4697.3999 6741.23 4697.3999 7012.3799 4697.3999 7291.1899 C4840.8999 7291.1899 4984.3999 7291.1899 5127.8999 7291.1899 L5127.8999 7291.1899 C5127.8999 7012.3799 5127.8999 6741.23 5127.8999 6462.4199 Z" fill="rgb(114,114,114)" fill-rule="evenodd" stroke="white"/><path d="M5558.3901 6462.4199 C5414.8901 6462.4199 5271.3901 6462.4199 5127.8999 6462.4199 C5127.8999 6741.23 5127.8999 7012.3799 5127.8999 7291.1899 C5271.3901 7291.1899 5414.8901 7291.1899 5558.3901 7291.1899 L5558.3901 7291.1899 C5558.3901 7012.3799 5558.3901 6741.23 5558.3901 6462.4199 Z" fill-rule="evenodd" stroke="none"/><path d="M5558.3901 6462.4199 C5414.8901 6462.4199 5271.3901 6462.4199 5127.8999 6462.4199 C5127.8999 6741.23 5127.8999 7012.3799 5127.8999 7291.1899 C5271.3901 7291.1899 5414.8901 7291.1899 5558.3901 7291.1899 L5558.3901 7291.1899 C5558.3901 7012.3799 5558.3901 6741.23 5558.3901 6462.4199 Z" fill="rgb(114,114,114)" fill-rule="evenodd" stroke="white"/><path d="M4266.8999 6462.4199 C3547.46 6462.4199 4760.29 6462.4199 4040.8401 6462.4199 C4040.8401 6751.29 4040.8401 7002.3101 4040.8401 7291.1899 C4760.29 7291.1899 3547.46 7291.1899 4266.8999 7291.1899 L4266.8999 7291.1899 C4266.8999 7002.3101 4266.8999 6751.29 4266.8999 6462.4199 Z" fill-rule="evenodd" stroke="none"/><path d="M4266.8999 6462.4199 C3547.46 6462.4199 4760.29 6462.4199 4040.8401 6462.4199 C4040.8401 6751.29 4040.8401 7002.3101 4040.8401 7291.1899 C4760.29 7291.1899 3547.46 7291.1899 4266.8999 7291.1899 L4266.8999 7291.1899 C4266.8999 7002.3101 4266.8999 6751.29 4266.8999 6462.4199 Z" fill="rgb(114,114,114)" fill-rule="evenodd" stroke="white"/><path d="M6214.9502 6462.4199 C5495.5 6462.4199 6708.3301 6462.4199 5988.8901 6462.4199 C5988.8901 6751.29 5988.8901 7002.3101 5988.8901 7291.1899 C6708.3301 7291.1899 5495.5 7291.1899 6214.9502 7291.1899 L6214.9502 7291.1899 C6214.9502 7002.3101 6214.9502 6751.29 6214.9502 6462.4199 Z" fill-rule="evenodd" stroke="none"/><path d="M6214.9502 6462.4199 C5495.5 6462.4199 6708.3301 6462.4199 5988.8901 6462.4199 C5988.8901 6751.29 5988.8901 7002.3101 5988.8901 7291.1899 C6708.3301 7291.1899 5495.5 7291.1899 6214.9502 7291.1899 L6214.9502 7291.1899 C6214.9502 7002.3101 6214.9502 6751.29 6214.9502 6462.4199 Z" fill="rgb(114,114,114)" fill-rule="evenodd" stroke="white"/><path d="M5988.8901 6462.4199 C5845.3901 6462.4199 5701.8901 6462.4199 5558.3901 6462.4199 C5558.3901 6741.23 5558.3901 7012.3799 5558.3901 7291.1899 C5701.8901 7291.1899 5845.3901 7291.1899 5988.8901 7291.1899 L5988.8901 7291.1899 C5988.8901 7012.3799 5988.8901 6741.23 5988.8901 6462.4199 Z" fill-rule="evenodd" stroke="none"/><path d="M5988.8901 6462.4199 C5845.3901 6462.4199 5701.8901 6462.4199 5558.3901 6462.4199 C5558.3901 6741.23 5558.3901 7012.3799 5558.3901 7291.1899 C5701.8901 7291.1899 5845.3901 7291.1899 5988.8901 7291.1899 L5988.8901 7291.1899 C5988.8901 7012.3799 5988.8901 6741.23 5988.8901 6462.4199 Z" fill="rgb(114,114,114)" fill-rule="evenodd" stroke="white"/><path d="M2580.98 1887.5699 C2562.78 1898.0699 2544.5901 1908.58 2526.3899 1919.09 C2514.52 1898.53 2502.6499 1877.97 2490.78 1857.41 C2472.6001 1867.92 2454.4099 1878.42 2436.22 1888.92 C2424.3501 1868.36 2412.48 1847.8 2400.6101 1827.25 C2382.3799 1837.77 2364.1499 1848.3 2345.9199 1858.8199 C2258.9399 1708.16 2171.96 1557.51 2084.98 1406.85 C2185.49 1348.8199 2285.99 1290.79 2386.5 1232.77 C2521.01 1465.74 2655.52 1698.71 2790.02 1931.6899 C2762.3101 1947.6899 2734.6001 1963.6899 2706.8899 1979.6801 C2694.97 1959.04 2683.05 1938.39 2671.1299 1917.75 C2652.95 1928.25 2634.77 1938.74 2616.5901 1949.24 L2616.5901 1949.24 C2604.72 1928.6801 2592.8501 1908.13 2580.98 1887.5699 Z" fill-rule="evenodd" stroke="none"/><path d="M2580.98 1887.5699 C2562.78 1898.0699 2544.5901 1908.58 2526.3899 1919.09 C2514.52 1898.53 2502.6499 1877.97 2490.78 1857.41 C2472.6001 1867.92 2454.4099 1878.42 2436.22 1888.92 C2424.3501 1868.36 2412.48 1847.8 2400.6101 1827.25 C2382.3799 1837.77 2364.1499 1848.3 2345.9199 1858.8199 C2258.9399 1708.16 2171.96 1557.51 2084.98 1406.85 C2185.49 1348.8199 2285.99 1290.79 2386.5 1232.77 C2521.01 1465.74 2655.52 1698.71 2790.02 1931.6899 C2762.3101 1947.6899 2734.6001 1963.6899 2706.8899 1979.6801 C2694.97 1959.04 2683.05 1938.39 2671.1299 1917.75 C2652.95 1928.25 2634.77 1938.74 2616.5901 1949.24 L2616.5901 1949.24 C2604.72 1928.6801 2592.8501 1908.13 2580.98 1887.5699 Z" fill="rgb(114,114,114)" fill-rule="evenodd" stroke="white"/><path d="M8498.0801 2447.6799 C8498.0801 2638.99 8498.0801 2830.3101 8498.0801 3021.6201 C8062.8901 3021.6201 7627.7002 3021.6201 7192.5098 3021.6201 C7192.5098 2838.49 7192.5098 2655.3701 7192.5098 2472.24 C7611.9399 2472.24 8031.3599 2472.24 8450.79 2472.24 C8450.79 2464.0601 8450.79 2455.8701 8450.79 2447.6799 L8450.79 2447.6799 C8466.5498 2447.6799 8482.3096 2447.6799 8498.0801 2447.6799 Z" fill-rule="evenodd" stroke="none"/><path d="M8498.0801 2447.6799 C8498.0801 2638.99 8498.0801 2830.3101 8498.0801 3021.6201 C8062.8901 3021.6201 7627.7002 3021.6201 7192.5098 3021.6201 C7192.5098 2838.49 7192.5098 2655.3701 7192.5098 2472.24 C7611.9399 2472.24 8031.3599 2472.24 8450.79 2472.24 C8450.79 2464.0601 8450.79 2455.8701 8450.79 2447.6799 L8450.79 2447.6799 C8466.5498 2447.6799 8482.3096 2447.6799 8498.0801 2447.6799 Z" fill="rgb(114,114,114)" fill-rule="evenodd" stroke="white"/><path d="M8498.0801 3570.99 C8498.0801 3387.8701 8498.0801 3204.74 8498.0801 3021.6201 C8062.8901 3021.6201 7627.7002 3021.6201 7192.5098 3021.6201 C7192.5098 3204.74 7192.5098 3387.8701 7192.5098 3570.99 L7192.5098 3570.99 C7627.7002 3570.99 8062.8901 3570.99 8498.0801 3570.99 Z" fill-rule="evenodd" stroke="none"/><path d="M8498.0801 3570.99 C8498.0801 3387.8701 8498.0801 3204.74 8498.0801 3021.6201 C8062.8901 3021.6201 7627.7002 3021.6201 7192.5098 3021.6201 C7192.5098 3204.74 7192.5098 3387.8701 7192.5098 3570.99 L7192.5098 3570.99 C7627.7002 3570.99 8062.8901 3570.99 8498.0801 3570.99 Z" fill="rgb(114,114,114)" fill-rule="evenodd" stroke="white"/><path d="M3411.8301 1654.99 C3265.4399 1401.4301 3119.05 1147.88 2972.6599 894.322 C2777.27 1007.13 2581.8799 1119.9399 2386.49 1232.75 C2532.8799 1486.3 2679.27 1739.86 2825.6599 1993.42 L2825.6599 1993.42 C3021.05 1880.61 3216.4399 1767.8 3411.8301 1654.99 Z" fill-rule="evenodd" stroke="none"/><path d="M3411.8301 1654.99 C3265.4399 1401.4301 3119.05 1147.88 2972.6599 894.322 C2777.27 1007.13 2581.8799 1119.9399 2386.49 1232.75 C2532.8799 1486.3 2679.27 1739.86 2825.6599 1993.42 L2825.6599 1993.42 C3021.05 1880.61 3216.4399 1767.8 3411.8301 1654.99 Z" fill="rgb(114,114,114)" fill-rule="evenodd" stroke="white"/><path d="M1741.92 3570.99 C1741.92 3754.1201 1741.92 3937.24 1741.92 4120.3701 C2177.1101 4120.3701 2612.3 4120.3701 3047.49 4120.3701 C3047.49 3937.24 3047.49 3754.1201 3047.49 3570.99 L3047.49 3570.99 C2612.3 3570.99 2177.1101 3570.99 1741.92 3570.99 Z" fill-rule="evenodd" stroke="none"/><path d="M1741.92 3570.99 C1741.92 3754.1201 1741.92 3937.24 1741.92 4120.3701 C2177.1101 4120.3701 2612.3 4120.3701 3047.49 4120.3701 C3047.49 3937.24 3047.49 3754.1201 3047.49 3570.99 L3047.49 3570.99 C2612.3 3570.99 2177.1101 3570.99 1741.92 3570.99 Z" fill="rgb(114,114,114)" fill-rule="evenodd" stroke="white"/><path d="M1741.92 3021.6201 C1741.92 3204.74 1741.92 3387.8701 1741.92 3570.99 C2177.1101 3570.99 2612.3 3570.99 3047.49 3570.99 C3047.49 3387.8701 3047.49 3204.74 3047.49 3021.6201 L3047.49 3021.6201 C2612.3 3021.6201 2177.1101 3021.6201 1741.92 3021.6201 Z" fill-rule="evenodd" stroke="none"/><path d="M1741.92 3021.6201 C1741.92 3204.74 1741.92 3387.8701 1741.92 3570.99 C2177.1101 3570.99 2612.3 3570.99 3047.49 3570.99 C3047.49 3387.8701 3047.49 3204.74 3047.49 3021.6201 L3047.49 3021.6201 C2612.3 3021.6201 2177.1101 3021.6201 1741.92 3021.6201 Z" fill="rgb(114,114,114)" fill-rule="evenodd" stroke="white"/><path d="M8498.0801 5768.5 C8498.0801 5585.3701 8498.0801 5402.25 8498.0801 5219.1201 C8062.8901 5219.1201 7627.7002 5219.1201 7192.5098 5219.1201 C7192.5098 5402.25 7192.5098 5585.3701 7192.5098 5768.5 L7192.5098 5768.5 C7627.7002 5768.5 8062.8901 5768.5 8498.0801 5768.5 Z" fill-rule="evenodd" stroke="none"/><path d="M8498.0801 5768.5 C8498.0801 5585.3701 8498.0801 5402.25 8498.0801 5219.1201 C8062.8901 5219.1201 7627.7002 5219.1201 7192.5098 5219.1201 C7192.5098 5402.25 7192.5098 5585.3701 7192.5098 5768.5 L7192.5098 5768.5 C7627.7002 5768.5 8062.8901 5768.5 8498.0801 5768.5 Z" fill="rgb(114,114,114)" fill-rule="evenodd" stroke="white"/><path d="M1741.92 2447.6799 C1741.92 2638.99 1741.92 2830.3101 1741.92 3021.6201 C2177.1101 3021.6201 2612.3 3021.6201 3047.49 3021.6201 C3047.49 2838.49 3047.49 2655.3701 3047.49 2472.24 C2628.1201 2472.24 2208.76 2472.24 1789.4 2472.24 C1789.4 2464.0601 1789.4 2455.8701 1789.4 2447.6799 L1789.4 2447.6799 C1773.5699 2447.6799 1757.75 2447.6799 1741.92 2447.6799 Z" fill-rule="evenodd" stroke="none"/><path d="M1741.92 2447.6799 C1741.92 2638.99 1741.92 2830.3101 1741.92 3021.6201 C2177.1101 3021.6201 2612.3 3021.6201 3047.49 3021.6201 C3047.49 2838.49 3047.49 2655.3701 3047.49 2472.24 C2628.1201 2472.24 2208.76 2472.24 1789.4 2472.24 C1789.4 2464.0601 1789.4 2455.8701 1789.4 2447.6799 L1789.4 2447.6799 C1773.5699 2447.6799 1757.75 2447.6799 1741.92 2447.6799 Z" fill="rgb(114,114,114)" fill-rule="evenodd" stroke="white"/><path d="M1741.92 5768.5 C1741.92 5585.3701 1741.92 5402.25 1741.92 5219.1201 C2177.1101 5219.1201 2612.3 5219.1201 3047.49 5219.1201 C3047.49 5402.25 3047.49 5585.3701 3047.49 5768.5 L3047.49 5768.5 C2612.3 5768.5 2177.1101 5768.5 1741.92 5768.5 Z" fill-rule="evenodd" stroke="none"/><path d="M1741.92 5768.5 C1741.92 5585.3701 1741.92 5402.25 1741.92 5219.1201 C2177.1101 5219.1201 2612.3 5219.1201 3047.49 5219.1201 C3047.49 5402.25 3047.49 5585.3701 3047.49 5768.5 L3047.49 5768.5 C2612.3 5768.5 2177.1101 5768.5 1741.92 5768.5 Z" fill="rgb(114,114,114)" fill-rule="evenodd" stroke="white"/><path d="M8498.0801 4120.3701 C8498.0801 3937.24 8498.0801 3754.1201 8498.0801 3570.99 C8062.8901 3570.99 7627.7002 3570.99 7192.5098 3570.99 C7192.5098 3754.1201 7192.5098 3937.24 7192.5098 4120.3701 L7192.5098 4120.3701 C7627.7002 4120.3701 8062.8901 4120.3701 8498.0801 4120.3701 Z" fill-rule="evenodd" stroke="none"/><path d="M8498.0801 4120.3701 C8498.0801 3937.24 8498.0801 3754.1201 8498.0801 3570.99 C8062.8901 3570.99 7627.7002 3570.99 7192.5098 3570.99 C7192.5098 3754.1201 7192.5098 3937.24 7192.5098 4120.3701 L7192.5098 4120.3701 C7627.7002 4120.3701 8062.8901 4120.3701 8498.0801 4120.3701 Z" fill="rgb(114,114,114)" fill-rule="evenodd" stroke="white"/><path d="M8498.0801 4669.75 C8498.0801 4486.6201 8498.0801 4303.5 8498.0801 4120.3701 C8062.8901 4120.3701 7627.7002 4120.3701 7192.5098 4120.3701 C7192.5098 4303.5 7192.5098 4486.6201 7192.5098 4669.75 L7192.5098 4669.75 C7627.7002 4669.75 8062.8901 4669.75 8498.0801 4669.75 Z" fill-rule="evenodd" stroke="none"/><path d="M8498.0801 4669.75 C8498.0801 4486.6201 8498.0801 4303.5 8498.0801 4120.3701 C8062.8901 4120.3701 7627.7002 4120.3701 7192.5098 4120.3701 C7192.5098 4303.5 7192.5098 4486.6201 7192.5098 4669.75 L7192.5098 4669.75 C7627.7002 4669.75 8062.8901 4669.75 8498.0801 4669.75 Z" fill="rgb(114,114,114)" fill-rule="evenodd" stroke="white"/><path d="M1741.92 5219.1201 C1741.92 5036 1741.92 4852.8701 1741.92 4669.75 C2177.1101 4669.75 2612.3 4669.75 3047.49 4669.75 C3047.49 4852.8701 3047.49 5035.9902 3047.49 5219.1201 L3047.49 5219.1201 C2612.3 5219.1201 2177.1101 5219.1201 1741.92 5219.1201 Z" fill-rule="evenodd" stroke="none"/><path d="M1741.92 5219.1201 C1741.92 5036 1741.92 4852.8701 1741.92 4669.75 C2177.1101 4669.75 2612.3 4669.75 3047.49 4669.75 C3047.49 4852.8701 3047.49 5035.9902 3047.49 5219.1201 L3047.49 5219.1201 C2612.3 5219.1201 2177.1101 5219.1201 1741.92 5219.1201 Z" fill="rgb(114,114,114)" fill-rule="evenodd" stroke="white"/><path d="M1741.92 4669.75 C1741.92 4486.6201 1741.92 4303.4902 1741.92 4120.3701 C2177.1101 4120.3701 2612.3 4120.3701 3047.49 4120.3701 C3047.49 4303.4902 3047.49 4486.6201 3047.49 4669.75 L3047.49 4669.75 C2612.3 4669.75 2177.1101 4669.75 1741.92 4669.75 Z" fill-rule="evenodd" stroke="none"/><path d="M1741.92 4669.75 C1741.92 4486.6201 1741.92 4303.4902 1741.92 4120.3701 C2177.1101 4120.3701 2612.3 4120.3701 3047.49 4120.3701 C3047.49 4303.4902 3047.49 4486.6201 3047.49 4669.75 L3047.49 4669.75 C2612.3 4669.75 2177.1101 4669.75 1741.92 4669.75 Z" fill="rgb(114,114,114)" fill-rule="evenodd" stroke="white"/><path d="M8498.0801 5219.1201 C8498.0801 5036 8498.0801 4852.8701 8498.0801 4669.75 C8062.8901 4669.75 7627.7002 4669.75 7192.5098 4669.75 C7192.5098 4852.8701 7192.5098 5035.9902 7192.5098 5219.1201 L7192.5098 5219.1201 C7627.7002 5219.1201 8062.8901 5219.1201 8498.0801 5219.1201 Z" fill-rule="evenodd" stroke="none"/><path d="M8498.0801 5219.1201 C8498.0801 5036 8498.0801 4852.8701 8498.0801 4669.75 C8062.8901 4669.75 7627.7002 4669.75 7192.5098 4669.75 C7192.5098 4852.8701 7192.5098 5035.9902 7192.5098 5219.1201 L7192.5098 5219.1201 C7627.7002 5219.1201 8062.8901 5219.1201 8498.0801 5219.1201 Z" fill="rgb(114,114,114)" fill-rule="evenodd" stroke="white"/><path d="M4697.3999 6462.4199 C4553.8999 6462.4199 4410.3999 6462.4199 4266.8999 6462.4199 C4266.8999 6741.23 4266.8999 7012.3799 4266.8999 7291.1899 C4410.3999 7291.1899 4553.8999 7291.1899 4697.3999 7291.1899 L4697.3999 7291.1899 C4697.3999 7012.3799 4697.3999 6741.23 4697.3999 6462.4199 Z" fill="rgb(114,114,114)" fill-rule="evenodd" stroke="none"/><path d="M4697.3999 6462.4199 C4553.8999 6462.4199 4410.3999 6462.4199 4266.8999 6462.4199 C4266.8999 6741.23 4266.8999 7012.3799 4266.8999 7291.1899 C4410.3999 7291.1899 4553.8999 7291.1899 4697.3999 7291.1899 L4697.3999 7291.1899 C4697.3999 7012.3799 4697.3999 6741.23 4697.3999 6462.4199 Z" fill="rgb(114,114,114)" fill-rule="evenodd" stroke="white"/><path d="M8498.0801 5768.5 C8498.0801 5842.5601 8498.0801 5916.6299 8498.0801 5990.7002 C8062.8901 5990.7002 7627.7002 5990.7002 7192.5098 5990.7002 C7192.5098 5916.6299 7192.5098 5842.5601 7192.5098 5768.5 L7192.5098 5768.5 C7627.7002 5768.5 8062.8901 5768.5 8498.0801 5768.5 Z" fill="rgb(114,114,114)" fill-rule="evenodd" stroke="none"/><path d="M8498.0801 5768.5 C8498.0801 5842.5601 8498.0801 5916.6299 8498.0801 5990.7002 C8062.8901 5990.7002 7627.7002 5990.7002 7192.5098 5990.7002 C7192.5098 5916.6299 7192.5098 5842.5601 7192.5098 5768.5 L7192.5098 5768.5 C7627.7002 5768.5 8062.8901 5768.5 8498.0801 5768.5 Z" fill="rgb(114,114,114)" fill-rule="evenodd" stroke="white"/><path d="M3558.8701 555.874 C3705.26 809.429 3851.6599 1062.99 3998.05 1316.54 C4029.4199 1298.4301 4060.8 1280.3101 4092.1799 1262.1899 C4128.2202 1262.1899 4164.27 1262.1899 4200.3101 1262.1899 C4200.3101 969.413 4200.3101 676.633 4200.3101 383.852 C4085.8201 383.852 3971.3201 383.852 3856.8201 383.852 L3856.8201 383.852 C3757.51 441.193 3658.1899 498.533 3558.8701 555.874 Z" fill="rgb(114,114,114)" fill-rule="evenodd" stroke="none"/><path d="M3558.8701 555.874 C3705.26 809.429 3851.6599 1062.99 3998.05 1316.54 C4029.4199 1298.4301 4060.8 1280.3101 4092.1799 1262.1899 C4128.2202 1262.1899 4164.27 1262.1899 4200.3101 1262.1899 C4200.3101 969.413 4200.3101 676.633 4200.3101 383.852 C4085.8201 383.852 3971.3201 383.852 3856.8201 383.852 L3856.8201 383.852 C3757.51 441.193 3658.1899 498.533 3558.8701 555.874 Z" fill="rgb(114,114,114)" fill-rule="evenodd" stroke="white"/><path d="M4200.3101 383.877 C4404.6899 383.877 4609.0601 383.877 4813.4399 383.877 C4813.4399 605.413 4813.4399 826.949 4813.4399 1048.49 C4609.0601 1048.49 4404.6899 1048.49 4200.3101 1048.49 L4200.3101 1048.49 C4200.3101 826.949 4200.3101 605.413 4200.3101 383.877 Z" fill="rgb(114,114,114)" fill-rule="evenodd" stroke="none"/><path d="M4200.3101 383.877 C4404.6899 383.877 4609.0601 383.877 4813.4399 383.877 C4813.4399 605.413 4813.4399 826.949 4813.4399 1048.49 C4609.0601 1048.49 4404.6899 1048.49 4200.3101 1048.49 L4200.3101 1048.49 C4200.3101 826.949 4200.3101 605.413 4200.3101 383.877 Z" fill="rgb(114,114,114)" fill-rule="evenodd" stroke="white"/><path d="M6682.0098 554.273 C6583.6401 497.474 6485.2598 440.676 6386.8799 383.877 C6271.1499 383.877 6155.4199 383.877 6039.6899 383.877 C6039.6899 676.632 6039.6899 969.387 6039.6899 1262.14 C6075.7202 1262.14 6111.75 1262.14 6147.79 1262.14 C6179.1699 1280.26 6210.5601 1298.38 6241.9399 1316.5 L6241.9399 1316.5 C6388.6299 1062.4301 6535.3198 808.35 6682.0098 554.273 Z" fill="rgb(114,114,114)" fill-rule="evenodd" stroke="none"/><path d="M6682.0098 554.273 C6583.6401 497.474 6485.2598 440.676 6386.8799 383.877 C6271.1499 383.877 6155.4199 383.877 6039.6899 383.877 C6039.6899 676.632 6039.6899 969.387 6039.6899 1262.14 C6075.7202 1262.14 6111.75 1262.14 6147.79 1262.14 C6179.1699 1280.26 6210.5601 1298.38 6241.9399 1316.5 L6241.9399 1316.5 C6388.6299 1062.4301 6535.3198 808.35 6682.0098 554.273 Z" fill="rgb(114,114,114)" fill-rule="evenodd" stroke="white"/><path d="M7854.3999 1231.15 C7659.0098 1118.34 7463.6201 1005.53 7268.23 892.727 C7121.54 1146.8 6974.8501 1400.88 6828.1602 1654.96 C7023.5498 1767.76 7218.9399 1880.5699 7414.3198 1993.38 L7414.3198 1993.38 C7426.1899 1972.8199 7719.5698 1464.67 7854.3999 1231.15 Z" fill="rgb(114,114,114)" fill-rule="evenodd" stroke="none"/><path d="M7854.3999 1231.15 C7659.0098 1118.34 7463.6201 1005.53 7268.23 892.727 C7121.54 1146.8 6974.8501 1400.88 6828.1602 1654.96 C7023.5498 1767.76 7218.9399 1880.5699 7414.3198 1993.38 L7414.3198 1993.38 C7426.1899 1972.8199 7719.5698 1464.67 7854.3999 1231.15 Z" fill="rgb(114,114,114)" fill-rule="evenodd" stroke="white"/><path d="M3365.79 2364.73 L3318.3101 2364.73 L3047.5601 2412.1299 L3047.5601 3194.3101 L3365.79 3194.3101 L3365.79 2364.73 Z" fill="rgb(114,114,114)" fill-rule="evenodd" stroke="none"/><path d="M3365.79 2364.73 L3318.3101 2364.73 L3047.5601 2412.1299 L3047.5601 3194.3101 L3365.79 3194.3101 L3365.79 2364.73 Z" fill="rgb(114,114,114)" fill-rule="evenodd" stroke="white"/><path d="M7268.21 892.711 C7072.8198 779.903 6877.4302 667.096 6682.04 554.289 C6535.3501 808.365 6388.6602 1062.4399 6241.9702 1316.52 C6437.3599 1429.33 6632.7402 1542.13 6828.1299 1654.9399 L6828.1299 1654.9399 C6974.8198 1400.86 7121.5098 1146.79 7268.21 892.711 Z" fill="rgb(114,114,114)" fill-rule="evenodd" stroke="none"/><path d="M7268.21 892.711 C7072.8198 779.903 6877.4302 667.096 6682.04 554.289 C6535.3501 808.365 6388.6602 1062.4399 6241.9702 1316.52 C6437.3599 1429.33 6632.7402 1542.13 6828.1299 1654.9399 L6828.1299 1654.9399 C6974.8198 1400.86 7121.5098 1146.79 7268.21 892.711 Z" fill="rgb(114,114,114)" fill-rule="evenodd" stroke="white"/><path d="M6039.6899 383.877 C5835.3101 383.877 5630.9399 383.877 5426.5601 383.877 C5426.5601 605.413 5426.5601 826.949 5426.5601 1048.49 C5630.9399 1048.49 5835.3101 1048.49 6039.6899 1048.49 L6039.6899 1048.49 C6039.6899 826.949 6039.6899 605.413 6039.6899 383.877 Z" fill="rgb(114,114,114)" fill-rule="evenodd" stroke="none"/><path d="M6039.6899 383.877 C5835.3101 383.877 5630.9399 383.877 5426.5601 383.877 C5426.5601 605.413 5426.5601 826.949 5426.5601 1048.49 C5630.9399 1048.49 5835.3101 1048.49 6039.6899 1048.49 L6039.6899 1048.49 C6039.6899 826.949 6039.6899 605.413 6039.6899 383.877 Z" fill="rgb(114,114,114)" fill-rule="evenodd" stroke="white"/><path d="M3411.8301 1654.99 C3607.24 1542.17 3802.6399 1429.36 3998.05 1316.54 C3851.6599 1062.99 3705.26 809.429 3558.8701 555.874 C3363.47 668.69 3168.0701 781.506 2972.6599 894.322 L2972.6599 894.322 C3119.05 1147.88 3265.4399 1401.4301 3411.8301 1654.99 Z" fill="rgb(114,114,114)" fill-rule="evenodd" stroke="none"/><path d="M3411.8301 1654.99 C3607.24 1542.17 3802.6399 1429.36 3998.05 1316.54 C3851.6599 1062.99 3705.26 809.429 3558.8701 555.874 C3363.47 668.69 3168.0701 781.506 2972.6599 894.322 L2972.6599 894.322 C3119.05 1147.88 3265.4399 1401.4301 3411.8301 1654.99 Z" fill="rgb(114,114,114)" fill-rule="evenodd" stroke="white"/><path d="M1741.92 5990.7002 C1741.92 5916.6299 1741.92 5842.5601 1741.92 5768.5 C2177.1101 5768.5 2612.3 5768.5 3047.49 5768.5 C3047.49 5842.5601 3047.49 5916.6299 3047.49 5990.7002 L3047.49 5990.7002 C2612.3 5990.7002 2177.1101 5990.7002 1741.92 5990.7002 Z" fill="rgb(114,114,114)" fill-rule="evenodd" stroke="none"/><path d="M1741.92 5990.7002 C1741.92 5916.6299 1741.92 5842.5601 1741.92 5768.5 C2177.1101 5768.5 2612.3 5768.5 3047.49 5768.5 C3047.49 5842.5601 3047.49 5916.6299 3047.49 5990.7002 L3047.49 5990.7002 C2612.3 5990.7002 2177.1101 5990.7002 1741.92 5990.7002 Z" fill="rgb(114,114,114)" fill-rule="evenodd" stroke="white"/><path d="M7658.9399 1887.5699 C7677.1299 1898.0699 7695.3301 1908.58 7713.52 1919.09 C7725.3901 1898.53 7737.2598 1877.97 7749.1299 1857.41 C7767.3198 1867.92 7785.5098 1878.42 7803.7002 1888.92 C7815.5698 1868.36 7827.4302 1847.8 7839.2998 1827.25 C7857.5298 1837.77 7875.7598 1848.3 7893.9902 1858.8199 C7981.29 1707.62 8068.5898 1556.42 8155.8799 1405.21 C8055.3999 1347.2 7954.9102 1289.1801 7854.4199 1231.16 C7719.6001 1464.6801 7584.7798 1698.2 7449.96 1931.72 C7477.6499 1947.71 7505.3398 1963.6899 7533.02 1979.6801 C7544.9399 1959.04 7556.8599 1938.39 7568.7798 1917.75 C7586.96 1928.25 7605.1499 1938.74 7623.3301 1949.24 L7623.3301 1949.24 C7635.2002 1928.6801 7647.0698 1908.13 7658.9399 1887.5699 Z" fill="rgb(114,114,114)" fill-rule="evenodd" stroke="none"/><path d="M7658.9399 1887.5699 C7677.1299 1898.0699 7695.3301 1908.58 7713.52 1919.09 C7725.3901 1898.53 7737.2598 1877.97 7749.1299 1857.41 C7767.3198 1867.92 7785.5098 1878.42 7803.7002 1888.92 C7815.5698 1868.36 7827.4302 1847.8 7839.2998 1827.25 C7857.5298 1837.77 7875.7598 1848.3 7893.9902 1858.8199 C7981.29 1707.62 8068.5898 1556.42 8155.8799 1405.21 C8055.3999 1347.2 7954.9102 1289.1801 7854.4199 1231.16 C7719.6001 1464.6801 7584.7798 1698.2 7449.96 1931.72 C7477.6499 1947.71 7505.3398 1963.6899 7533.02 1979.6801 C7544.9399 1959.04 7556.8599 1938.39 7568.7798 1917.75 C7586.96 1928.25 7605.1499 1938.74 7623.3301 1949.24 L7623.3301 1949.24 C7635.2002 1928.6801 7647.0698 1908.13 7658.9399 1887.5699 Z" fill="rgb(114,114,114)" fill-rule="evenodd" stroke="white"/><path d="M5426.5601 383.877 C5222.1899 383.877 5017.8101 383.877 4813.4399 383.877 C4813.4399 605.413 4813.4399 826.949 4813.4399 1048.49 C5017.8101 1048.49 5222.1899 1048.49 5426.5601 1048.49 L5426.5601 1048.49 C5426.5601 826.949 5426.5601 605.413 5426.5601 383.877 Z" fill="rgb(114,114,114)" fill-rule="evenodd" stroke="none"/><path d="M5426.5601 383.877 C5222.1899 383.877 5017.8101 383.877 4813.4399 383.877 C4813.4399 605.413 4813.4399 826.949 4813.4399 1048.49 C5017.8101 1048.49 5222.1899 1048.49 5426.5601 1048.49 L5426.5601 1048.49 C5426.5601 826.949 5426.5601 605.413 5426.5601 383.877 Z" fill="rgb(114,114,114)" fill-rule="evenodd" stroke="white"/><path d="M3365.79 5261.7998 L3047.5601 5261.7998 L3047.5601 5990.7598 L3318.3101 6115.0698 L3365.79 6115.0698 L3365.79 5261.7998 Z" fill="rgb(114,114,114)" fill-rule="evenodd" stroke="none"/><path d="M3365.79 5261.7998 L3047.5601 5261.7998 L3047.5601 5990.7598 L3318.3101 6115.0698 L3365.79 6115.0698 L3365.79 5261.7998 Z" fill="rgb(114,114,114)" fill-rule="evenodd" stroke="white"/><path d="M6099.7002 1514.55 L6952.4902 2006.91 L6928.75 2048.02 L6075.96 1555.66 L6099.7002 1514.55 Z" fill="rgb(114,114,114)" fill-rule="evenodd" stroke="none"/><path d="M6099.7002 1514.55 L6952.4902 2006.91 L6928.75 2048.02 L6075.96 1555.66 L6099.7002 1514.55 Z" fill="rgb(114,114,114)" fill-rule="evenodd" stroke="white"/><path d="M4094.0601 1541.13 L3285.0701 2008.2 L3308.8101 2049.3101 L4117.79 1582.24 L4094.0601 1541.13 Z" fill="rgb(114,114,114)" fill-rule="evenodd" stroke="none"/><path d="M4094.0601 1541.13 L3285.0701 2008.2 L3308.8101 2049.3101 L4117.79 1582.24 L4094.0601 1541.13 Z" fill="rgb(114,114,114)" fill-rule="evenodd" stroke="white"/><path d="M7192.4399 2407.53 L6921.6899 2360.1299 L6874.21 2360.1299 L6874.21 3189.7 L7192.4399 3189.7 L7192.4399 2407.53 Z" fill="rgb(114,114,114)" fill-rule="evenodd" stroke="none"/><path d="M7192.4399 2407.53 L6921.6899 2360.1299 L6874.21 2360.1299 L6874.21 3189.7 L7192.4399 3189.7 L7192.4399 2407.53 Z" fill="rgb(114,114,114)" fill-rule="evenodd" stroke="white"/><path d="M7192.4399 5261.7998 L6874.21 5261.7998 L6874.21 6115.0698 L6921.6899 6115.0698 L7192.4399 5990.75 L7192.4399 5261.7998 Z" fill="rgb(114,114,114)" fill-rule="evenodd" stroke="none"/><path d="M7192.4399 5261.7998 L6874.21 5261.7998 L6874.21 6115.0698 L6921.6899 6115.0698 L7192.4399 5990.75 L7192.4399 5261.7998 Z" fill="rgb(114,114,114)" fill-rule="evenodd" stroke="white"/><path d="M5127.8999 6462.4199 C4984.3999 6462.4199 4840.8999 6462.4199 4697.3999 6462.4199 C4697.3999 6741.23 4697.3999 7012.3799 4697.3999 7291.1899 C4840.8999 7291.1899 4984.3999 7291.1899 5127.8999 7291.1899 L5127.8999 7291.1899 C5127.8999 7012.3799 5127.8999 6741.23 5127.8999 6462.4199 Z" fill="rgb(114,114,114)" fill-rule="evenodd" stroke="none"/><path d="M5127.8999 6462.4199 C4984.3999 6462.4199 4840.8999 6462.4199 4697.3999 6462.4199 C4697.3999 6741.23 4697.3999 7012.3799 4697.3999 7291.1899 C4840.8999 7291.1899 4984.3999 7291.1899 5127.8999 7291.1899 L5127.8999 7291.1899 C5127.8999 7012.3799 5127.8999 6741.23 5127.8999 6462.4199 Z" fill="rgb(114,114,114)" fill-rule="evenodd" stroke="white"/><path d="M5558.3901 6462.4199 C5414.8901 6462.4199 5271.3901 6462.4199 5127.8999 6462.4199 C5127.8999 6741.23 5127.8999 7012.3799 5127.8999 7291.1899 C5271.3901 7291.1899 5414.8901 7291.1899 5558.3901 7291.1899 L5558.3901 7291.1899 C5558.3901 7012.3799 5558.3901 6741.23 5558.3901 6462.4199 Z" fill="rgb(114,114,114)" fill-rule="evenodd" stroke="none"/><path d="M5558.3901 6462.4199 C5414.8901 6462.4199 5271.3901 6462.4199 5127.8999 6462.4199 C5127.8999 6741.23 5127.8999 7012.3799 5127.8999 7291.1899 C5271.3901 7291.1899 5414.8901 7291.1899 5558.3901 7291.1899 L5558.3901 7291.1899 C5558.3901 7012.3799 5558.3901 6741.23 5558.3901 6462.4199 Z" fill="rgb(114,114,114)" fill-rule="evenodd" stroke="white"/><path d="M4266.8999 6462.4199 C3547.46 6462.4199 4760.29 6462.4199 4040.8401 6462.4199 C4040.8401 6751.29 4040.8401 7002.3101 4040.8401 7291.1899 C4760.29 7291.1899 3547.46 7291.1899 4266.8999 7291.1899 L4266.8999 7291.1899 C4266.8999 7002.3101 4266.8999 6751.29 4266.8999 6462.4199 Z" fill="rgb(114,114,114)" fill-rule="evenodd" stroke="none"/><path d="M4266.8999 6462.4199 C3547.46 6462.4199 4760.29 6462.4199 4040.8401 6462.4199 C4040.8401 6751.29 4040.8401 7002.3101 4040.8401 7291.1899 C4760.29 7291.1899 3547.46 7291.1899 4266.8999 7291.1899 L4266.8999 7291.1899 C4266.8999 7002.3101 4266.8999 6751.29 4266.8999 6462.4199 Z" fill="rgb(114,114,114)" fill-rule="evenodd" stroke="white"/><path d="M6214.9502 6462.4199 C5495.5 6462.4199 6708.3301 6462.4199 5988.8901 6462.4199 C5988.8901 6751.29 5988.8901 7002.3101 5988.8901 7291.1899 C6708.3301 7291.1899 5495.5 7291.1899 6214.9502 7291.1899 L6214.9502 7291.1899 C6214.9502 7002.3101 6214.9502 6751.29 6214.9502 6462.4199 Z" fill="rgb(114,114,114)" fill-rule="evenodd" stroke="none"/><path d="M6214.9502 6462.4199 C5495.5 6462.4199 6708.3301 6462.4199 5988.8901 6462.4199 C5988.8901 6751.29 5988.8901 7002.3101 5988.8901 7291.1899 C6708.3301 7291.1899 5495.5 7291.1899 6214.9502 7291.1899 L6214.9502 7291.1899 C6214.9502 7002.3101 6214.9502 6751.29 6214.9502 6462.4199 Z" fill="rgb(114,114,114)" fill-rule="evenodd" stroke="white"/><path d="M5988.8901 6462.4199 C5845.3901 6462.4199 5701.8901 6462.4199 5558.3901 6462.4199 C5558.3901 6741.23 5558.3901 7012.3799 5558.3901 7291.1899 C5701.8901 7291.1899 5845.3901 7291.1899 5988.8901 7291.1899 L5988.8901 7291.1899 C5988.8901 7012.3799 5988.8901 6741.23 5988.8901 6462.4199 Z" fill="rgb(114,114,114)" fill-rule="evenodd" stroke="none"/><path d="M5988.8901 6462.4199 C5845.3901 6462.4199 5701.8901 6462.4199 5558.3901 6462.4199 C5558.3901 6741.23 5558.3901 7012.3799 5558.3901 7291.1899 C5701.8901 7291.1899 5845.3901 7291.1899 5988.8901 7291.1899 L5988.8901 7291.1899 C5988.8901 7012.3799 5988.8901 6741.23 5988.8901 6462.4199 Z" fill="rgb(114,114,114)" fill-rule="evenodd" stroke="white"/><path d="M2580.98 1887.5699 C2562.78 1898.0699 2544.5901 1908.58 2526.3899 1919.09 C2514.52 1898.53 2502.6499 1877.97 2490.78 1857.41 C2472.6001 1867.92 2454.4099 1878.42 2436.22 1888.92 C2424.3501 1868.36 2412.48 1847.8 2400.6101 1827.25 C2382.3799 1837.77 2364.1499 1848.3 2345.9199 1858.8199 C2258.9399 1708.16 2171.96 1557.51 2084.98 1406.85 C2185.49 1348.8199 2285.99 1290.79 2386.5 1232.77 C2521.01 1465.74 2655.52 1698.71 2790.02 1931.6899 C2762.3101 1947.6899 2734.6001 1963.6899 2706.8899 1979.6801 C2694.97 1959.04 2683.05 1938.39 2671.1299 1917.75 C2652.95 1928.25 2634.77 1938.74 2616.5901 1949.24 L2616.5901 1949.24 C2604.72 1928.6801 2592.8501 1908.13 2580.98 1887.5699 Z" fill="rgb(114,114,114)" fill-rule="evenodd" stroke="none"/><path d="M2580.98 1887.5699 C2562.78 1898.0699 2544.5901 1908.58 2526.3899 1919.09 C2514.52 1898.53 2502.6499 1877.97 2490.78 1857.41 C2472.6001 1867.92 2454.4099 1878.42 2436.22 1888.92 C2424.3501 1868.36 2412.48 1847.8 2400.6101 1827.25 C2382.3799 1837.77 2364.1499 1848.3 2345.9199 1858.8199 C2258.9399 1708.16 2171.96 1557.51 2084.98 1406.85 C2185.49 1348.8199 2285.99 1290.79 2386.5 1232.77 C2521.01 1465.74 2655.52 1698.71 2790.02 1931.6899 C2762.3101 1947.6899 2734.6001 1963.6899 2706.8899 1979.6801 C2694.97 1959.04 2683.05 1938.39 2671.1299 1917.75 C2652.95 1928.25 2634.77 1938.74 2616.5901 1949.24 L2616.5901 1949.24 C2604.72 1928.6801 2592.8501 1908.13 2580.98 1887.5699 Z" fill="rgb(114,114,114)" fill-rule="evenodd" stroke="white"/><path d="M8498.0801 2447.6799 C8498.0801 2638.99 8498.0801 2830.3101 8498.0801 3021.6201 C8062.8901 3021.6201 7627.7002 3021.6201 7192.5098 3021.6201 C7192.5098 2838.49 7192.5098 2655.3701 7192.5098 2472.24 C7611.9399 2472.24 8031.3599 2472.24 8450.79 2472.24 C8450.79 2464.0601 8450.79 2455.8701 8450.79 2447.6799 L8450.79 2447.6799 C8466.5498 2447.6799 8482.3096 2447.6799 8498.0801 2447.6799 Z" fill="rgb(114,114,114)" fill-rule="evenodd" stroke="none"/><path d="M8498.0801 2447.6799 C8498.0801 2638.99 8498.0801 2830.3101 8498.0801 3021.6201 C8062.8901 3021.6201 7627.7002 3021.6201 7192.5098 3021.6201 C7192.5098 2838.49 7192.5098 2655.3701 7192.5098 2472.24 C7611.9399 2472.24 8031.3599 2472.24 8450.79 2472.24 C8450.79 2464.0601 8450.79 2455.8701 8450.79 2447.6799 L8450.79 2447.6799 C8466.5498 2447.6799 8482.3096 2447.6799 8498.0801 2447.6799 Z" fill="rgb(114,114,114)" fill-rule="evenodd" stroke="white"/><path d="M8498.0801 3570.99 C8498.0801 3387.8701 8498.0801 3204.74 8498.0801 3021.6201 C8062.8901 3021.6201 7627.7002 3021.6201 7192.5098 3021.6201 C7192.5098 3204.74 7192.5098 3387.8701 7192.5098 3570.99 L7192.5098 3570.99 C7627.7002 3570.99 8062.8901 3570.99 8498.0801 3570.99 Z" fill="rgb(114,114,114)" fill-rule="evenodd" stroke="none"/><path d="M8498.0801 3570.99 C8498.0801 3387.8701 8498.0801 3204.74 8498.0801 3021.6201 C8062.8901 3021.6201 7627.7002 3021.6201 7192.5098 3021.6201 C7192.5098 3204.74 7192.5098 3387.8701 7192.5098 3570.99 L7192.5098 3570.99 C7627.7002 3570.99 8062.8901 3570.99 8498.0801 3570.99 Z" fill="rgb(114,114,114)" fill-rule="evenodd" stroke="white"/><path d="M3411.8301 1654.99 C3265.4399 1401.4301 3119.05 1147.88 2972.6599 894.322 C2777.27 1007.13 2581.8799 1119.9399 2386.49 1232.75 C2532.8799 1486.3 2679.27 1739.86 2825.6599 1993.42 L2825.6599 1993.42 C3021.05 1880.61 3216.4399 1767.8 3411.8301 1654.99 Z" fill="rgb(114,114,114)" fill-rule="evenodd" stroke="none"/><path d="M3411.8301 1654.99 C3265.4399 1401.4301 3119.05 1147.88 2972.6599 894.322 C2777.27 1007.13 2581.8799 1119.9399 2386.49 1232.75 C2532.8799 1486.3 2679.27 1739.86 2825.6599 1993.42 L2825.6599 1993.42 C3021.05 1880.61 3216.4399 1767.8 3411.8301 1654.99 Z" fill="rgb(114,114,114)" fill-rule="evenodd" stroke="white"/><path d="M1741.92 3570.99 C1741.92 3754.1201 1741.92 3937.24 1741.92 4120.3701 C2177.1101 4120.3701 2612.3 4120.3701 3047.49 4120.3701 C3047.49 3937.24 3047.49 3754.1201 3047.49 3570.99 L3047.49 3570.99 C2612.3 3570.99 2177.1101 3570.99 1741.92 3570.99 Z" fill="rgb(114,114,114)" fill-rule="evenodd" stroke="none"/><path d="M1741.92 3570.99 C1741.92 3754.1201 1741.92 3937.24 1741.92 4120.3701 C2177.1101 4120.3701 2612.3 4120.3701 3047.49 4120.3701 C3047.49 3937.24 3047.49 3754.1201 3047.49 3570.99 L3047.49 3570.99 C2612.3 3570.99 2177.1101 3570.99 1741.92 3570.99 Z" fill="rgb(114,114,114)" fill-rule="evenodd" stroke="white"/><path d="M1741.92 3021.6201 C1741.92 3204.74 1741.92 3387.8701 1741.92 3570.99 C2177.1101 3570.99 2612.3 3570.99 3047.49 3570.99 C3047.49 3387.8701 3047.49 3204.74 3047.49 3021.6201 L3047.49 3021.6201 C2612.3 3021.6201 2177.1101 3021.6201 1741.92 3021.6201 Z" fill="rgb(114,114,114)" fill-rule="evenodd" stroke="none"/><path d="M1741.92 3021.6201 C1741.92 3204.74 1741.92 3387.8701 1741.92 3570.99 C2177.1101 3570.99 2612.3 3570.99 3047.49 3570.99 C3047.49 3387.8701 3047.49 3204.74 3047.49 3021.6201 L3047.49 3021.6201 C2612.3 3021.6201 2177.1101 3021.6201 1741.92 3021.6201 Z" fill="rgb(114,114,114)" fill-rule="evenodd" stroke="white"/><path d="M8498.0801 5768.5 C8498.0801 5585.3701 8498.0801 5402.25 8498.0801 5219.1201 C8062.8901 5219.1201 7627.7002 5219.1201 7192.5098 5219.1201 C7192.5098 5402.25 7192.5098 5585.3701 7192.5098 5768.5 L7192.5098 5768.5 C7627.7002 5768.5 8062.8901 5768.5 8498.0801 5768.5 Z" fill="rgb(114,114,114)" fill-rule="evenodd" stroke="none"/><path d="M8498.0801 5768.5 C8498.0801 5585.3701 8498.0801 5402.25 8498.0801 5219.1201 C8062.8901 5219.1201 7627.7002 5219.1201 7192.5098 5219.1201 C7192.5098 5402.25 7192.5098 5585.3701 7192.5098 5768.5 L7192.5098 5768.5 C7627.7002 5768.5 8062.8901 5768.5 8498.0801 5768.5 Z" fill="rgb(114,114,114)" fill-rule="evenodd" stroke="white"/><path d="M1741.92 2447.6799 C1741.92 2638.99 1741.92 2830.3101 1741.92 3021.6201 C2177.1101 3021.6201 2612.3 3021.6201 3047.49 3021.6201 C3047.49 2838.49 3047.49 2655.3701 3047.49 2472.24 C2628.1201 2472.24 2208.76 2472.24 1789.4 2472.24 C1789.4 2464.0601 1789.4 2455.8701 1789.4 2447.6799 L1789.4 2447.6799 C1773.5699 2447.6799 1757.75 2447.6799 1741.92 2447.6799 Z" fill="rgb(114,114,114)" fill-rule="evenodd" stroke="none"/><path d="M1741.92 2447.6799 C1741.92 2638.99 1741.92 2830.3101 1741.92 3021.6201 C2177.1101 3021.6201 2612.3 3021.6201 3047.49 3021.6201 C3047.49 2838.49 3047.49 2655.3701 3047.49 2472.24 C2628.1201 2472.24 2208.76 2472.24 1789.4 2472.24 C1789.4 2464.0601 1789.4 2455.8701 1789.4 2447.6799 L1789.4 2447.6799 C1773.5699 2447.6799 1757.75 2447.6799 1741.92 2447.6799 Z" fill="rgb(114,114,114)" fill-rule="evenodd" stroke="white"/><path d="M1741.92 5768.5 C1741.92 5585.3701 1741.92 5402.25 1741.92 5219.1201 C2177.1101 5219.1201 2612.3 5219.1201 3047.49 5219.1201 C3047.49 5402.25 3047.49 5585.3701 3047.49 5768.5 L3047.49 5768.5 C2612.3 5768.5 2177.1101 5768.5 1741.92 5768.5 Z" fill="rgb(114,114,114)" fill-rule="evenodd" stroke="none"/><path d="M1741.92 5768.5 C1741.92 5585.3701 1741.92 5402.25 1741.92 5219.1201 C2177.1101 5219.1201 2612.3 5219.1201 3047.49 5219.1201 C3047.49 5402.25 3047.49 5585.3701 3047.49 5768.5 L3047.49 5768.5 C2612.3 5768.5 2177.1101 5768.5 1741.92 5768.5 Z" fill="rgb(114,114,114)" fill-rule="evenodd" stroke="white"/><path d="M8498.0801 4120.3701 C8498.0801 3937.24 8498.0801 3754.1201 8498.0801 3570.99 C8062.8901 3570.99 7627.7002 3570.99 7192.5098 3570.99 C7192.5098 3754.1201 7192.5098 3937.24 7192.5098 4120.3701 L7192.5098 4120.3701 C7627.7002 4120.3701 8062.8901 4120.3701 8498.0801 4120.3701 Z" fill="rgb(114,114,114)" fill-rule="evenodd" stroke="none"/><path d="M8498.0801 4120.3701 C8498.0801 3937.24 8498.0801 3754.1201 8498.0801 3570.99 C8062.8901 3570.99 7627.7002 3570.99 7192.5098 3570.99 C7192.5098 3754.1201 7192.5098 3937.24 7192.5098 4120.3701 L7192.5098 4120.3701 C7627.7002 4120.3701 8062.8901 4120.3701 8498.0801 4120.3701 Z" fill="rgb(114,114,114)" fill-rule="evenodd" stroke="white"/><path d="M8498.0801 4669.75 C8498.0801 4486.6201 8498.0801 4303.5 8498.0801 4120.3701 C8062.8901 4120.3701 7627.7002 4120.3701 7192.5098 4120.3701 C7192.5098 4303.5 7192.5098 4486.6201 7192.5098 4669.75 L7192.5098 4669.75 C7627.7002 4669.75 8062.8901 4669.75 8498.0801 4669.75 Z" fill="rgb(114,114,114)" fill-rule="evenodd" stroke="none"/><path d="M8498.0801 4669.75 C8498.0801 4486.6201 8498.0801 4303.5 8498.0801 4120.3701 C8062.8901 4120.3701 7627.7002 4120.3701 7192.5098 4120.3701 C7192.5098 4303.5 7192.5098 4486.6201 7192.5098 4669.75 L7192.5098 4669.75 C7627.7002 4669.75 8062.8901 4669.75 8498.0801 4669.75 Z" fill="rgb(114,114,114)" fill-rule="evenodd" stroke="white"/><path d="M1741.92 5219.1201 C1741.92 5036 1741.92 4852.8701 1741.92 4669.75 C2177.1101 4669.75 2612.3 4669.75 3047.49 4669.75 C3047.49 4852.8701 3047.49 5035.9902 3047.49 5219.1201 L3047.49 5219.1201 C2612.3 5219.1201 2177.1101 5219.1201 1741.92 5219.1201 Z" fill="rgb(114,114,114)" fill-rule="evenodd" stroke="none"/><path d="M1741.92 5219.1201 C1741.92 5036 1741.92 4852.8701 1741.92 4669.75 C2177.1101 4669.75 2612.3 4669.75 3047.49 4669.75 C3047.49 4852.8701 3047.49 5035.9902 3047.49 5219.1201 L3047.49 5219.1201 C2612.3 5219.1201 2177.1101 5219.1201 1741.92 5219.1201 Z" fill="rgb(114,114,114)" fill-rule="evenodd" stroke="white"/><path d="M1741.92 4669.75 C1741.92 4486.6201 1741.92 4303.4902 1741.92 4120.3701 C2177.1101 4120.3701 2612.3 4120.3701 3047.49 4120.3701 C3047.49 4303.4902 3047.49 4486.6201 3047.49 4669.75 L3047.49 4669.75 C2612.3 4669.75 2177.1101 4669.75 1741.92 4669.75 Z" fill="rgb(114,114,114)" fill-rule="evenodd" stroke="none"/><path d="M1741.92 4669.75 C1741.92 4486.6201 1741.92 4303.4902 1741.92 4120.3701 C2177.1101 4120.3701 2612.3 4120.3701 3047.49 4120.3701 C3047.49 4303.4902 3047.49 4486.6201 3047.49 4669.75 L3047.49 4669.75 C2612.3 4669.75 2177.1101 4669.75 1741.92 4669.75 Z" fill="rgb(114,114,114)" fill-rule="evenodd" stroke="white"/><path d="M8498.0801 5219.1201 C8498.0801 5036 8498.0801 4852.8701 8498.0801 4669.75 C8062.8901 4669.75 7627.7002 4669.75 7192.5098 4669.75 C7192.5098 4852.8701 7192.5098 5035.9902 7192.5098 5219.1201 L7192.5098 5219.1201 C7627.7002 5219.1201 8062.8901 5219.1201 8498.0801 5219.1201 Z" fill="rgb(114,114,114)" fill-rule="evenodd" stroke="none"/><path d="M8498.0801 5219.1201 C8498.0801 5036 8498.0801 4852.8701 8498.0801 4669.75 C8062.8901 4669.75 7627.7002 4669.75 7192.5098 4669.75 C7192.5098 4852.8701 7192.5098 5035.9902 7192.5098 5219.1201 L7192.5098 5219.1201 C7627.7002 5219.1201 8062.8901 5219.1201 8498.0801 5219.1201 Z" fill="rgb(114,114,114)" fill-rule="evenodd" stroke="white"/></g></g><g font-family="averta,arial,'arial bold'" id="labels-container"><g fill="white" font-size="101px" stroke="white"><text fill="rgb(255,255,255)" stroke="none" x="4205" xml:space="preserve" y="6849">SOUTH 130</text></g><g fill="white" font-size="101px" stroke="white"><text fill="rgb(255,255,255)" stroke="none" x="7611" xml:space="preserve" y="5900">EAST 125</text></g><g fill="white" font-size="101px" stroke="white"><text fill="rgb(255,255,255)" stroke="none" x="3677" xml:space="preserve" y="769">NORTH 111</text></g><g fill="white" font-size="101px" stroke="white"><text fill="rgb(255,255,255)" stroke="none" x="4228" xml:space="preserve" y="702">NORTH 112</text></g><g fill="white" font-size="101px" stroke="white"><text fill="rgb(255,255,255)" stroke="none" x="6003" xml:space="preserve" y="770">NORTH 115</text></g><g fill="white" font-size="101px" stroke="white"><text fill="rgb(255,255,255)" stroke="none" x="7062" xml:space="preserve" y="1429">NORTH 117</text></g><g fill="white" font-size="101px" stroke="white"><text fill="rgb(255,255,255)" stroke="none" x="2987" xml:space="preserve" y="2747">107 WCR</text></g><g fill="white" font-size="101px" stroke="white"><text fill="rgb(255,255,255)" stroke="none" x="6476" xml:space="preserve" y="1090">NORTH 116</text></g><g fill="white" font-size="101px" stroke="white"><text fill="rgb(255,255,255)" stroke="none" x="5454" xml:space="preserve" y="702">NORTH 114</text></g><g fill="white" font-size="101px" stroke="white"><text fill="rgb(255,255,255)" stroke="none" x="3206" xml:space="preserve" y="1091">NORTH 110</text></g><g fill="white" font-size="101px" stroke="white"><text fill="rgb(255,255,255)" stroke="none" x="2149" xml:space="preserve" y="5900">WEST 101</text></g><g fill="white" font-size="88px" stroke="white"><text fill="rgb(255,255,255)" stroke="none" x="7623" xml:space="preserve" y="1599">NORTH 118</text></g><g fill="white" font-size="101px" stroke="white"><text fill="rgb(255,255,255)" stroke="none" x="4841" xml:space="preserve" y="701">NORTH 113</text></g><g fill="white" font-size="101px" stroke="white"><text fill="rgb(255,255,255)" stroke="none" x="2987" xml:space="preserve" y="5608">102 WCR</text></g><g fill="white" font-size="40px" stroke="white" transform="matrix(0.866,0.5,-0.5,0.866,1735.4567,-2980.8124)"><text fill="rgb(255,255,255)" stroke="none" x="6430" xml:space="preserve" y="1748">116 WCR</text></g><g fill="white" font-size="40px" stroke="white" transform="matrix(0.866,-0.5,0.5,0.866,-438.0382,2063.219)"><text fill="rgb(255,255,255)" stroke="none" x="3631" xml:space="preserve" y="1849">110 WCR</text></g><g fill="white" font-size="101px" stroke="white"><text fill="rgb(255,255,255)" stroke="none" x="6813" xml:space="preserve" y="2742">119 WCR</text></g><g fill="white" font-size="101px" stroke="white"><text fill="rgb(255,255,255)" stroke="none" x="6813" xml:space="preserve" y="5608">124 WCR</text></g><g fill="white" font-size="101px" stroke="white"><text fill="rgb(255,255,255)" stroke="none" x="4636" xml:space="preserve" y="6849">SOUTH 129</text></g><g fill="white" font-size="101px" stroke="white"><text fill="rgb(255,255,255)" stroke="none" x="5066" xml:space="preserve" y="6849">SOUTH 128</text></g><g fill="white" font-size="54px" stroke="white"><text fill="rgb(255,255,255)" stroke="none" x="4005" xml:space="preserve" y="6856">SOUTH 131</text></g><g fill="white" font-size="54px" stroke="white"><text fill="rgb(255,255,255)" stroke="none" x="5953" xml:space="preserve" y="6856">SOUTH 126</text></g><g fill="white" font-size="101px" stroke="white"><text fill="rgb(255,255,255)" stroke="none" x="5497" xml:space="preserve" y="6850">SOUTH 127</text></g><g fill="white" font-size="88px" stroke="white"><text fill="rgb(255,255,255)" stroke="none" x="2133" xml:space="preserve" y="1604">NORTH 108</text></g><g fill="white" font-size="101px" stroke="white"><text fill="rgb(255,255,255)" stroke="none" x="7611" xml:space="preserve" y="2750">EAST 119</text></g><g fill="white" font-size="101px" stroke="white"><text fill="rgb(255,255,255)" stroke="none" x="7611" xml:space="preserve" y="3312">EAST 120</text></g><g fill="white" font-size="101px" stroke="white"><text fill="rgb(255,255,255)" stroke="none" x="2620" xml:space="preserve" y="1429">NORTH 109</text></g><g fill="white" font-size="101px" stroke="white"><text fill="rgb(255,255,255)" stroke="none" x="2149" xml:space="preserve" y="3861">WEST 105</text></g><g fill="white" font-size="101px" stroke="white"><text fill="rgb(255,255,255)" stroke="none" x="2149" xml:space="preserve" y="3312">WEST 106</text></g><g fill="white" font-size="101px" stroke="white"><text fill="rgb(255,255,255)" stroke="none" x="7611" xml:space="preserve" y="5509">EAST 124</text></g><g fill="white" font-size="101px" stroke="white"><text fill="rgb(255,255,255)" stroke="none" x="2149" xml:space="preserve" y="2750">WEST 107</text></g><g fill="white" font-size="101px" stroke="white"><text fill="rgb(255,255,255)" stroke="none" x="2149" xml:space="preserve" y="5509">WEST 102</text></g><g fill="white" font-size="101px" stroke="white"><text fill="rgb(255,255,255)" stroke="none" x="7611" xml:space="preserve" y="3861">EAST 121</text></g><g fill="white" font-size="101px" stroke="white"><text fill="rgb(255,255,255)" stroke="none" x="7611" xml:space="preserve" y="4410">EAST 122</text></g><g fill="white" font-size="101px" stroke="white"><text fill="rgb(255,255,255)" stroke="none" x="2149" xml:space="preserve" y="4960">WEST 103</text></g><g fill="white" font-size="101px" stroke="white"><text fill="rgb(255,255,255)" stroke="none" x="2149" xml:space="preserve" y="4410">WEST 104</text></g><g fill="white" font-size="101px" stroke="white"><text fill="rgb(255,255,255)" stroke="none" x="7611" xml:space="preserve" y="4960">EAST 123</text></g><g fill="white" font-size="101px" stroke="white"><text fill="rgb(255,255,255)" stroke="none" x="4205" xml:space="preserve" y="6849">SOUTH 130</text></g><g fill="white" font-size="101px" stroke="white"><text fill="rgb(255,255,255)" stroke="none" x="7611" xml:space="preserve" y="5900">EAST 125</text></g><g fill="white" font-size="101px" stroke="white"><text fill="rgb(255,255,255)" stroke="none" x="3677" xml:space="preserve" y="769">NORTH 111</text></g><g fill="white" font-size="101px" stroke="white"><text fill="rgb(255,255,255)" stroke="none" x="4228" xml:space="preserve" y="702">NORTH 112</text></g><g fill="white" font-size="101px" stroke="white"><text fill="rgb(255,255,255)" stroke="none" x="6003" xml:space="preserve" y="770">NORTH 115</text></g><g fill="white" font-size="101px" stroke="white"><text fill="rgb(255,255,255)" stroke="none" x="7062" xml:space="preserve" y="1429">NORTH 117</text></g><g fill="white" font-size="101px" stroke="white"><text fill="rgb(255,255,255)" stroke="none" x="2987" xml:space="preserve" y="2747">107 WCR</text></g><g fill="white" font-size="101px" stroke="white"><text fill="rgb(255,255,255)" stroke="none" x="6476" xml:space="preserve" y="1090">NORTH 116</text></g><g fill="white" font-size="101px" stroke="white"><text fill="rgb(255,255,255)" stroke="none" x="5454" xml:space="preserve" y="702">NORTH 114</text></g><g fill="white" font-size="101px" stroke="white"><text fill="rgb(255,255,255)" stroke="none" x="3206" xml:space="preserve" y="1091">NORTH 110</text></g><g fill="white" font-size="101px" stroke="white"><text fill="rgb(255,255,255)" stroke="none" x="2149" xml:space="preserve" y="5900">WEST 101</text></g><g fill="white" font-size="88px" stroke="white"><text fill="rgb(255,255,255)" stroke="none" x="7623" xml:space="preserve" y="1599">NORTH 118</text></g><g fill="white" font-size="101px" stroke="white"><text fill="rgb(255,255,255)" stroke="none" x="4841" xml:space="preserve" y="701">NORTH 113</text></g><g fill="white" font-size="101px" stroke="white"><text fill="rgb(255,255,255)" stroke="none" x="2987" xml:space="preserve" y="5608">102 WCR</text></g><g fill="white" font-size="40px" stroke="white" transform="matrix(0.866,0.5,-0.5,0.866,1735.4567,-2980.8124)"><text fill="rgb(255,255,255)" stroke="none" x="6430" xml:space="preserve" y="1748">116 WCR</text></g><g fill="white" font-size="40px" stroke="white" transform="matrix(0.866,-0.5,0.5,0.866,-438.0382,2063.219)"><text fill="rgb(255,255,255)" stroke="none" x="3631" xml:space="preserve" y="1849">110 WCR</text></g><g fill="white" font-size="101px" stroke="white"><text fill="rgb(255,255,255)" stroke="none" x="6813" xml:space="preserve" y="2742">119 WCR</text></g><g fill="white" font-size="101px" stroke="white"><text fill="rgb(255,255,255)" stroke="none" x="6813" xml:space="preserve" y="5608">124 WCR</text></g><g fill="white" font-size="101px" stroke="white"><text fill="rgb(255,255,255)" stroke="none" x="4636" xml:space="preserve" y="6849">SOUTH 129</text></g><g fill="white" font-size="101px" stroke="white"><text fill="rgb(255,255,255)" stroke="none" x="5066" xml:space="preserve" y="6849">SOUTH 128</text></g><g fill="white" font-size="54px" stroke="white"><text fill="rgb(255,255,255)" stroke="none" x="4005" xml:space="preserve" y="6856">SOUTH 131</text></g><g fill="white" font-size="54px" stroke="white"><text fill="rgb(255,255,255)" stroke="none" x="5953" xml:space="preserve" y="6856">SOUTH 126</text></g><g fill="white" font-size="101px" stroke="white"><text fill="rgb(255,255,255)" stroke="none" x="5497" xml:space="preserve" y="6850">SOUTH 127</text></g><g fill="white" font-size="88px" stroke="white"><text fill="rgb(255,255,255)" stroke="none" x="2133" xml:space="preserve" y="1604">NORTH 108</text></g><g fill="white" font-size="101px" stroke="white"><text fill="rgb(255,255,255)" stroke="none" x="7611" xml:space="preserve" y="2750">EAST 119</text></g><g fill="white" font-size="101px" stroke="white"><text fill="rgb(255,255,255)" stroke="none" x="7611" xml:space="preserve" y="3312">EAST 120</text></g><g fill="white" font-size="101px" stroke="white"><text fill="rgb(255,255,255)" stroke="none" x="2620" xml:space="preserve" y="1429">NORTH 109</text></g><g fill="white" font-size="101px" stroke="white"><text fill="rgb(255,255,255)" stroke="none" x="2149" xml:space="preserve" y="3861">WEST 105</text></g><g fill="white" font-size="101px" stroke="white"><text fill="rgb(255,255,255)" stroke="none" x="2149" xml:space="preserve" y="3312">WEST 106</text></g><g fill="white" font-size="101px" stroke="white"><text fill="rgb(255,255,255)" stroke="none" x="7611" xml:space="preserve" y="5509">EAST 124</text></g><g fill="white" font-size="101px" stroke="white"><text fill="rgb(255,255,255)" stroke="none" x="2149" xml:space="preserve" y="2750">WEST 107</text></g><g fill="white" font-size="101px" stroke="white"><text fill="rgb(255,255,255)" stroke="none" x="2149" xml:space="preserve" y="5509">WEST 102</text></g><g fill="white" font-size="101px" stroke="white"><text fill="rgb(255,255,255)" stroke="none" x="7611" xml:space="preserve" y="3861">EAST 121</text></g><g fill="white" font-size="101px" stroke="white"><text fill="rgb(255,255,255)" stroke="none" x="7611" xml:space="preserve" y="4410">EAST 122</text></g><g fill="white" font-size="101px" stroke="white"><text fill="rgb(255,255,255)" stroke="none" x="2149" xml:space="preserve" y="4960">WEST 103</text></g><g fill="white" font-size="101px" stroke="white"><text fill="rgb(255,255,255)" stroke="none" x="2149" xml:space="preserve" y="4410">WEST 104</text></g><g fill="white" font-size="101px" stroke="white"><text fill="rgb(255,255,255)" stroke="none" x="7611" xml:space="preserve" y="4960">EAST 123</text></g></g></g></svg>